<mxfile host="app.diagrams.net" agent="Mozilla/5.0 (Windows NT 10.0; Win64; x64) AppleWebKit/537.36 (KHTML, like Gecko) Chrome/130.0.0.0 Safari/537.36" version="24.8.3">
  <diagram name="Page-1" id="lvFhbs63ZiBO4YeD3tzg">
    <mxGraphModel dx="1562" dy="845" grid="1" gridSize="10" guides="1" tooltips="1" connect="1" arrows="1" fold="1" page="1" pageScale="1" pageWidth="827" pageHeight="1169" math="0" shadow="0">
      <root>
        <mxCell id="0" />
        <mxCell id="1" parent="0" />
        <mxCell id="m8Gae5H3Ly4m1APC2grg-1" value="" style="shape=image;verticalLabelPosition=bottom;labelBackgroundColor=default;verticalAlign=top;aspect=fixed;imageAspect=0;image=data:image/png,iVBORw0KGgoAAAANSUhEUgAABLAAAALgCAYAAACEf44CAAAAAXNSR0IArs4c6QAAIABJREFUeF7s3XeYJFd97/9PVXV1T96dzbvaIGklARJCWShYEhlsY8BR5Gsbk4yv/eDr+4ef32M/15h7bV9z7zUgpFUEFBAs2QIbIwwmS0gWSEJpk3Zmw+TU07nS7zk1O5tXO6F7urr7XX6G2Z2pOvU9r1Oz1n72nFPWx2+6KRIHAggggAACCCCAAAIIIIAAAggggAACCRWwPn7TpwiwEjo4lIUAAggggAACCCCAAAIIIIAAAgggIBFg8RQggAACCCCAAAIIIIAAAggggAACCCRagAAr0cNDcQgggAACCCCAAAIIIIAAAggggAACBFg8AwgggAACCCCAAAIIIIAAAggggAACiRYgwEr08FAcAggggAACCCCAAAIIIIAAAggggAABFs8AAggggAACCCCAAAIIIIAAAggggECiBaxP8BbCRA8QxSGAAAIIIIAAAggggAACCCCAAAKtLmB94lM3R62OQP8RQAABBBBAAAEEEEAAAQQQQAABBJIrQICV3LGhMgQQQAABBBBAAAEEEEAAAQQQQAABSQRYPAYIIIAAAggggAACCCCAAAIIIIAAAokWIMBK9PBQHAIIIIAAAggggAACCCCAAAIIIIAAARbPAAIIIIAAAggggAACCCCAAAIIIIBAogUIsBI9PBSHAAIIIIAAAggggAACCCCAAAIIIECAxTOAAAIIIIAAAggggAACCCCAAAIIIJBoAQKsRA8PxSGAAAIIIIAAAggggAACCCCAAAIIWJ/41C0RDAgggAACCCCAAAIIIIAAAggggAACCCRVgAArqSNDXQgggAACCCCAAAIIIIAAAggggAACsYD1yZuZgcWzgAACCCCAAAIIIIAAAggggAACCCCQXAECrOSODZUhgAACCCCAAAIIIIAAAggggAACCDADi2cAAQQQQAABBBBAAAEEEEAAAQQQQCDpAszASvoIUR8CCCCAAAIIIIAAAggggAACCCDQ4gLWJ2/exlsIW/whoPsIIIAAAggggAACCCCAAAIIIIBAkgUIsJI8OtSGAAIIIIAAAggggAACCCCAAAIIIGDeQsgMLJ4DBBBAAAEEEEAAAQQQQAABBBBAAIHkChBgJXdsqAwBBBBAAAEEEEAAAQQQQAABBBBAYOYthMzA4klAAAEEEEAAAQQQQAABBBBAAAEEEEiugPXJWwiwkjs8VIYAAggggAACCCCAAAIIIIAAAgggYN1EgMVTgAACCCCAAAIIIIAAAggggAACCCCQYAECrAQPDqUhgAACCCCAAAIIIIAAAggggAACCEjWTbfcGgGBAAIIIIAAAggggAACCCCAAAIIIIBAUgUIsJI6MtSFAAIIIIAAAggggAACCCCAAAIIIBALEGDxICCAAAIIIIAAAggggAACCCCAAAIIJFqAACvRw0NxCCCAAAIIIIAAAggggAACCCAwV4EwdE441bIiWVY41yY4L6ECBFgJHRjKQgABBBBAAAEEEEAAAQQQQACB+Ql89zu/dswFubytDRv6dPkVT86vIc5OnIB10zY2cU/cqFAQAggggAACCCCAAAIIIIAAAgjMW6BQaD/mmps+/na96c2P6MXnPzHvtrggWQIEWMkaD6pBAAEEEEAAAQQQQAABBBBAAIFFCvi+q39/8Hr19JR19bU/WmRrXJ4EAQKsJIwCNSCAAAIIIIAAAggggAACCCCAQNUEHnn4Wk1N+XrN6x6uWps0VF8B66Ztt0X1LYG7I4AAAggggAACCCCAAAIIIIAAAtUR2LXrAn3tyxfq/X/8oLq7x6rTKK3UXcD6FAFW3QeBAhBAAAEEEEAAAQQQQAABBBBAYPECY6Mr9K1vvUKvf/1PtWr1wOIbpIXECBBgJWYoKAQBBBBAAAEEEEAAAQQQQAABBBYjsP3zN+raX/m+ztg4uJhmuDaBAgRYCRwUSkIAAQQQQAABBBBAAAEEEEAAgfkJPP74dfry9rN08SVDclLB4Ys3bhzRJZf+UrZ95Gvza5mzkyBAgJWEUaAGBBBAAAEEEEAAAQQQQAABBBBYlECx2KnslHtCG21tvnqW5WVZbAG+KOA6X0yAVecB4PYIIIAAAggggAACCCCAAAIIIIAAAi8sYH1q2+1EkDwlCCCAAAIIIIAAAggggAACCCCAAAKJFSDASuzQUBgCCCCAAAIIIIAAAggggAACCCCAgBGwPnUrM7B4FBBAAAEEEEAAAQQQQAABBBBAAAEEkitAgJXcsaEyBBBAAAEEEEAAAQQQQAABBBBAAAFmYPEMIIAAAggggAACCCCAAAIIIIAAAggkXYAZWEkfIepDAAEEEEAAAQQQQAABBBBAAAEEWlzAupk9sFr8EaD7CCCAAAIIIIAAAggggAACCCCAQLIFCLCSPT5UhwACCCCAAAIIIIAAAggggAACCLS8gHXzrXdELa8AAAIIIIAAAggggAACCCCAAAIIIIBAYgUIsBI7NBSGAAIIIIAAAggggAACCCCAAAIIIGAECLB4DhBAAAEEEEAAAQQQQAABBBBAAAEEEi1AgJXo4aE4BBBAAAEEEEAAAQQQQAABBBCYi4AfRlIUKeXYpzy9XCrpkZ89rJ07np1Lk4k+57LLr9T5L71QqVQq0XVWqzjr5tvYA6tamLSDAAIIIIAAAggggAACCCCAAAL1EcgVKsqkXbkp66QFlMtl/eSHP9DOHc/Jdd36FFnFu/q+r0svv0KXXHa5bPvUoV0Vb1nXpgiw6srPzRFAAAEEEEAAAQQQQAABBBBAoBoCuYIvWVJX+4kzkkzY89CPf6Snn/plfKtmCLA8z4v7cu11N+jF558vx3GqwZjYNgiwEjs0FIYAAggggAACCCCAAAIIIIAAAnMVGMt6sq1Ivd3pYy4pFot66Mc/PmbZYDMFWKazl11xpS665NKmXk5IgDXXnwTOQwABBBBAAAEEEEAAAQQQQACBRAoEYaihCbOE0FFvp3PMkrrvf/ff9dyzzxxTd7MFWJZl6eXXXKuXXXRxIsenGkURYFVDkTYQQAABBBBAAAEEEEAAAQQQQKBuAuWyp1wlJcsKtazDlmMf2Qfr07ffekxdvb292rZtW91qrdaNb7zxxhOa+oP3vr9azSeuHeuW2+6MElcVBSGAAAIIIIAAAggggAACCCCAAAJzFMgXyyoro8D31JNRvJm7OUzg8enbjw2rmjnA+sP3fmCOYo13GgFW440ZFSOAAAIIIIAAAggggAACCCCAwFEC41N5Weku+b6nrnSk9syRtwzeRYDVFM+KdcvtzMBqipGkEwgggAACCCCAAAIIIIAAAgi0okAkDY5Nq71ruYrFktocT8t7OmYkIqmlAqz3NfMMLAKsVvzxps8IIIAAAggggAACCCCAAAIINIVAFEXaPzSlFavWKJ8vKm1XtLy7/XDf7rqthZYQEmA1xTNNJxBAAAEEEEAAAQQQQAABBBBAoMkEwijSvsEprVq9VuVyRfnsmDatX0GA1WTjzBLCJhtQuoMAAggggAACCCCAAAIIIIBAKwkEYahd/WM6c8tmlcoVjY8O66yNKwmwmuwhIMBqsgGlOwgggAACCCCAAAIIIIAAAgi0koAJsMwSwvXrN6hYKmtw4KBedNY6AqwmewisW26/y7xVkgMBBBBAAAEEEEAAAQQQQAABBBBoSIEwDFX0U5JCtaVCObZ9qB+RWmsPrA825PjNpWgCrLkocQ4CCCCAAAIIIIAAAggggAACCCRaYLospWyp3T22zLtuu+WYL/T29mrbtmM3dk90x05R3I033njCd/7wfQRYjTiW1IwAAggggAACCCCAAAIIIIAAAi0iQIAlNXWAtY0lhC3yo0w3EUAAAQQQQAABBBBAAAEEEGhegeyhGVgdx83AurOFZmC9p5lnYBFgNe8PLz1DAAEEEEAAAQQQQAABBBBAoFUECLCk5g6w7mAT91b5YaafCCCAAAIIIIAAAggggAACCDSrQLY0swdWR/qoHkZSS83Aen8T74G1jQCrWX926RcCCCCAAAIIIIAAAggggAACLSNw0gBL0p23ts4m7u8hwGqZ552OIoAAAggggAACCCCAAAIIIIBAAwoQYElNHmB9OmrA55KSEUAAAQQQQAABBBBAAAEEEEAAgcMC2VJ0aAmhdYzKnbfefMzve3t7tW3btoaXu/HGG0/ow3ve/8cN369TdcDadgcBVtOOLh1DAAEEEEAAAQQQQAABBBBAoEUECLDMDCwCrBZ53OkmAggggAACCCCAAAIIIIAAAgg0ogABFgFWIz631IwAAggggAACCCCAAAIIIIAAAi0kQIBFgNVCjztdRQABBBBAAAEEEEAAAQQQQACBRhQgwCLAasTnlpoRQAABBBBAAAEEEEAAAQQQQKCFBJYiwBoeHlYURVq7dq08z9NXv/pVvfGNb1RHR4f279+vdDqtNWvWnFZ99+7d2rp162nPe6ETWnAT98/wFsJFPTJcjAACCCCAAAIIIIAAAggggAAC9RbIlkKlbEsd6aPfQhipmm8hHB8f17e//W299a1v1Y4dO/Twww9r3bp1eu1rX6uHHnpImzdv1oYNG5TL5dTV1XWYxIRdYRgqk8nEX3vlK1+p733ve4siO3mA9aFFtZnki61b7yTASvIAURsCCCCAAAIIIIAAAggggAACCJxeYKo4E2B1Zo4OsKQ7tn3qmIt7e3u1bdu20zd4ijP+4i/+Qh/72Me0fft2vfnNb9Zjjz2mq6++Wg888IBe85rX6Bvf+EY8E+uJJ57Qe9/73nhGljn/wgsv1JNPPql3vOMdesMb3qB7771XF1100YLrOFmA9UcfIMBaMCgXIoAAAggggAACCCCAAAIIIIAAArUWWKoA68EHH9T5558fh1Gve93r4plXl156qb74xS/GwdRnPvOZ+LM5fvrTn+q3f/u39fWvf10XX3yxNm3apNWrV+uSSy7Rz3/+80WREGAtio+LEUAAAQQQQAABBBBAAAEEEEAAgaUXWKoAyywH/MIXvqCrrrpK55xzTryksLu7W52dnXIcRzt37oyDLXMEQRB/L5vNau/evfGeWX/2Z38WLyEkwJrfM8ISwvl5cTYCCCCAAAIIIIAAAggggAACCCRQYKkCLNP1v/3bv9Wb3vSmeAmgCaxuu+02/eM//mOscvPNN+tVr3pVvMn75OSktmzZEs/WOvfcc+PQyuyX9b73vU//8A//sKiN3JmBlcCHkJIQQAABBBBAAAEEEEAAAQQQQACBFxJYygDr4MGDMntptbe3q1KpaNeuXfGyQnOYjd6npqbk+77OPPNMua6rvr6++O2FZm8ss8n7wMBA/H2zpHChBwHWQuW4DgEEEEAAAQQQQAABBBBAAAEEEKiTwFIGWHXq4jG3JcBKwihQAwIIIIAAAggggAACCCCAAAIIIDAPAQIsibcQzuOB4VQEEEAAAQQQQAABBBBAAAEEEEBgqQUIsJo+wPpstNQPFfdDAAEEEEAAAQQQQAABBBBAAAEEqikwVQyUsi11Zuxjmr1j203H/N7sXbVt27Zq3roubZ18CeGf1KWWpbipdeudBFhLAc09EEAAAQQQQAABBBBAAAEEEECgdgIEWGYGVjMHWHcRYNXux4eWEUAAAQQQQAABBBBAAAEEEEBgKQSmCoFSzklmYN3SQjOwPkiAtRTPGvdAAAEEEEAAAQQQQAABBBBAAAEEFiRAgCX9UTMHWLcxA2tBPxhchAACCCCAAAIIIIAAAggggAACyRE4VYB1ewvNwHovAVZyHkgqQQABBBBAAAEEEEAAAQQQQAABBI4XIMCSCLD4uUAAAQQQQAABBBBAAAEEEEAAAQQSLECARYCV4MeT0hBAAAEEEEAAAQQQQAABBBBAAAGJAKvpA6y7Ix50BBBAAAEEEEAAAQQQQAABBBBAoJEFpgr+obcQOsd04/ZbPnnM73t7e7Vt27ZG7mpc+4033nhCH977wf/a8P06VQes2+4iwGra0aVjCCCAAAIIIIAAAggggAACCLSIAAGWmYFFgNUijzvdRAABBBBAAAEEEEAAAQQQQACBRhQgwCLAasTnlpoRQAABBBBAAAEEEEAAAQQQQKCFBAiwCLBa6HGnqwgggAACCCCAAAIIIIAAAggg0IgCBFhNHmDd/mn2wGrEH0xqRgABBBBAAAEEEEAAAQQQQACBIwKT+ZlN3Lvajmzibt5ad/vNrbOJ+/v+uIn3wCLA4scdAQQQQAABBBBAAAEEEEAAAQQaXeBkAZbp020EWI0+tHH91u2fvscEkhwIIIAAAggggAACCCCAAAIIIIBAwwpM5r1DM7BSR/UharEA608bdvxOVzgB1umE+D4CCCCAAAIIIIAAAggggAACCCReYCbAso9ZQmiKvu3mTxxTe29vr7Zt25b4/pyuwBtvvPGEU973xwRYp3Pj+wgggAACCCCAAAIIIIAAAggggEDdBAiwJAKsuj1+3BgBBBBAAAEEEEAAAQQQQAABBBA4vcCpAqxvPvA17d2z+3ADlmWpvb399A0m/IxCoXBMhZdcfqWuufa6hFe98PJYQrhwO65EAAEEEEAAAQQQQAABBBBAAIGECJwqwJqezur73/2O+vY+f7hS13UTUvXCy/A87/DFF150ia665leUTqcX3mDCr7Ru/wybuCd8jCgPAQQQQAABBBBAAAEEEEAAAQROIzCZ83RBfkIH1q455swV01mNydK3vv897dm1M/5eMwVYl17xcl1+5csX1Cc/8jVUGdQZmY0n6B4o7z/p1+v1IBJg1Uue+yKAAAIIIIAAAggggAACCCCAQNUETID1u//+TfWdvVU7LrwwbnfVyLCu/MEP9N3feJPGPU/fffDf4plYzRBg+b6vl150sa697gY5jrMgRxNgfSn3ea211uuVXa+O2wiiQN/O/as6rU5d3/XKBbVbi4sIsGqhSpsIIIAAAggggAACCCCAAAIIILCkAibAWjs1oTdtv0c/e/s75VnSq7Z/Qd9857s0sbw3riWXm9YP/+N72te3d0lrq8XNLnjZRbr8yquUyWQW1XwumNa2iZv0uz1v05b0mdrn9enhwk/1O8veuqh2q30xAVa1RWkPAQQQQAABBBBAAAEEEEAAAQSWXMAEWCnH1rX7duvCL21XoatLj9/4Nu1eu3bJa2m0Gw5UDuiBwtf0rp4/1L9k/1m/0nmD1rrrEtUNAqxEDQfFIIAAAggggAACCCCAAAIIIIDAQgRmA6yudkdvu22bSo6jr77nvQtpquWuiRTpe7nvaLe/U+enX6prO65PnIF1x2fujRJXFQUhgAACCCCAAAIIIIAAAggggAACcxCwLGnF8mXqXtYrx7a04vv/oXO3b1fFkp542zu0Y/2GObTCKUPeoD459X/1kZV/J9ta2J5atVQkwKqlLm0jgAACCCCAAAIIIIAAAggggEBNBdasWqlLL75QffsH1Tk0oBd/4uN6+Hd+T5XhEd1w/736+gc/pKlly2taQ7UbD4JQe/aPyPM8taVdtWVSam9vU8q25bqObNtS2nWrettRb0SfmPo/+siqv69qu9VqjACrWpK0gwACCCCAAAIIIIAAAggggAACSy5wzZWXanwyq//9T7fqo08+ppf8r7/Rv3V0a8fufr3u6Z9r+dNP6YHfvFFFp7qBTy07GkaRQplZUJZMmGWW+AW+L0WKw6soimRb5teROtsyCsNA7Rk3/t5CDwKshcpxHQIIIIAAAggggAACCCCAAAIIIHAagWuvulwjI+Ma++uPam0lp3X33q0nnt6hXXv3y8Q5v/3tB/TgFddqqndFw1haliXLdhVFkh8GCvyZECsKQ5kvzuwFFcmxpbRjx+FV2nVkllMu9Jjwx/W53Gf1oeUfXmgTNb2OGVg15aVxBBBAAAEEEEAAAQQQQAABBBCopcDqVSt06UUv01PP7tTa1Stlfv+jn/5MuXyhlretadt+EGjvgVFVKn4cTLW1peOlhGaPLzflKJ1OVX0JYU07VIXGrTs+yybuVXCkCQQQQAABBBBAAAEEEEAAAQQQqJPA6pW9Onfr2apUPO3YvVvZ6XydKuG2tRIgwKqVLO0igAACCCCAAAIIIIAAAggggAACCFRFgACrKow0ggACCCCAAAIIIIAAAggggAACCCBQKwHrjs/eN7P3FwcCCCCAAAIIIIAAAggggAACCCCAAAIJFCDASuCgUBICCCCAAAIIIIAAAggggAACCCCAwBEBAiyeBgQQQAABBBBAAAEEEEAAAQQQQACBRAsQYCV6eCgOAQQQQAABBBBAAAEEEEAAAQQQQMC6kz2weAoQQAABBBBAAAEEEEAAAQQQQAABBBIsQICV4MGhNAQQQAABBBBAAAEEEEAAAQQQQAABiQCLpwABBBBAAAEEEEAAAQQQQAABBBBAINEC1p133xclukKKQwABBBBAAAEEEEAAAQQQQAABBBBoaQHrzrs/R4DV0o8AnUcAAQQQQAABBBBAAAEEEEAAAQSSLUCAlezxoToEEEAAAQQQQAABBBBAAAEEEECg5QUIsFr+EQAAAQQQQAABBBBAAAEEEEAAAQQQSLYAAVayx4fqEEAAAQQQQAABBBBAAAEEEEAAgZYXIMBq+UcAAAQQQAABBBBAAAEEEEAAAQQQQCDZAgRYyR4fqkMAAQQQQAABBBBAAAEEEEAAAQRaXoAAq+UfAQAQQAABBBBAAAEEEEAAAQQQQACBZAsQYCV7fKgOAQQQQAABBBBAAAEEEEAAAQQQaHkB6667749aXgEABBBAAAEEEEAAAQQQQAABBBBAAIHEClh33UOAldjRoTAEEEAAAQQQQAABBBBAAAEEEEAAARFg8RAggAACCCCAAAIIIIAAAggggAACCCRagAAr0cNDcQgggAACCCCAAAIIIIAAAggggAACBFg8AwgggAACCCCAAAIIIIAAAggggAACiRYgwEr08FAcAggggAACCCCAAAIIIIAAAggggAABFs8AAggggAACCCCAAAIIIIAAAggggECiBQiwEj08FIcAAggggAACCCCAAAIIIIAAAgggYN11z+cjGBBAAAEEEEAAAQQQQAABBBBAAAEEEEiqAAFWUkeGuhBAAAEEEEAAAQQQQAABBBBAAAEEYgECLB4EBBBAAAEEEEAAAQQQQAABBBBAAIFECxBgJXp4KA4BBBBAAAEEEEAAAQQQQAABBBBAwPo0e2DxFCCAAAIIIIAAAggggAACCCCAAAIIJFjA+vS9bOKe4PGhNAQQQAABBBBAAAEEEEAAAQQQQKDlBQiwWv4RAAABBBBAAAEEEEAAAQQQQAABBBBItgABVrLHh+oQQAABBBBAAAEEEEAAAQQQQACBlhcgwGr5RwAABBBAAAEEEEAAAQQQQAABBBBAINkCBFjJHh+qQwABBBBAAAEEEEAAAQQQQAABBFpewPr0vV+IWl4BAAQQQAABBBBAAAEEEEAAAQQQQACBxAoQYCV2aCgMAQQQQAABBBBAAAEEEEAAAQQQQMAIEGDxHCCAAAIIIIAAAggggAACCCCAAAIIJFrA+gxLCBM9QBSHAAIIIIAAAggggAACCCCAAAIItLoAAVarPwH0HwEEEEAAAQQQQAABBBBAAAEEEEi4gPWZ+9jEPeFjRHkIIIAAAggggAACCCCAAAIIIIBASwsQYLX08NN5BBBAAAEEEEAAAQQQQAABBBBAIPkCBFjJHyMqRAABBBBAAAEEEEAAAQQQQAABBFpawPrMfdujlhag8wgggAACCCCAAAIIIIAAAggggAACiRYgwEr08FAcAggggAACCCCAAAIIIIAAAggggAABFs8AAggggAACCCCAAAIIIIAAAggggECiBQiwEj08FIcAAggggAACCCCAAAIIIIAAAgggQIDFM4AAAggggAACCCCAAAIIIIAAAgggkGgBAqxEDw/FIYAAAggggAACCCCAAAIIIIAAAggQYPEMIIAAAggggAACCCCAAAIIIIAAAggkWsD67Oe+GCW6QopDAAEEEEAAAQQQQAABBBBAAAEEEGhpAQKslh5+Oo8AAggggAACCCCAAAIIIIAAAggkX4AAK/ljRIUIIIAAAggggAACCCCAAAIIIIBASwsQYLX08NN5BBBAAAEEEEAAAQQQQAABBBBAIPkCBFjJHyMqRAABBBBAAAEEEEAAAQQQQAABBFpagACrpYefziOAAAIIIIAAAggggAACCCCAAALJFyDASv4YUSECCCCAAAIIIIAAAggggAACCCDQ0gIEWC09/HQeAQQQQAABBBBAAAEEEEAAAQQQSL4AAVbyx4gKEUAAAQQQQAABBBBAAAEEEEAAgZYWIMBq6eGn8wgggAACCCCAAAIIIIAAAggggEDyBazP3v+lKPllUiECCCCAAAIIIIAAAggggAACCCCAQKsKEGC16sjTbwQQQAABBBBAAAEEEEAAAQQQQKBBBKy7mYHVIENFmQgggAACCCCAAAIIIIAAAggggEBrChBgtea402sEEEAAAQQQQAABBBBAAAEEEECgYQQIsBpmqCgUAQQQQAABBBBAAAEEEEAAAQQQaE0BAqzWHHd6jQACCCCAAAIIIIAAAggggAACCDSMAAFWwwwVhSKAAAIIIIAAAggggAACCCCAAAKtKUCA1ZrjTq8RQAABBBBAAAEEEEAAAQQQQACBhhGw7r7/y1HDVEuhCCCAAAIIIIAAAggggAACCCBQdYEoilTxygrDQJ7vyQ88FUo5VfyKyuWientWa82K9bJtu+r3pkEE5iJAgDUXJc5BAAEEEEAAAQQQQAABBBBAoIkEgsBXqVxUrpDVdGFK49kRBWGgKAoVhKGiKJAf+Id7nHJcXf2yV8lNpZtIga40koB19+eZgdVIA0atCCCAAAIIIIAAAggggAACCJxOwMyokiL5vh8HUWWvpGIpr3xhOg6rcsXs6Zo44fvXXfJ6uS4B1rzhuKAqAgRYVWGkEQQQQAABBBBAAAEEEEAAAQTqJxCF39ezAAAgAElEQVQEQbwEMA6pitMqlPKqeKV4CaDnlVUo5xddHAHWoglpYBECBFiLwONSBBBAAAEEEEAAAQQQQAABBBYqYGZJmSV7odl/qlxScGjZnmVZas90HNpvyopnUoVhKN/34plUlUol/mz2pop/75U0lZ9YaBlzvo4Aa85UnFgDAQKsGqDSJAIIIIAAAggggAACCCCAAAKzAiaoMuFTaPaXCoL4y2bfqanpMRXLRRVK0yqWC/HXU05aflA5jOfYKQXhkb2o6qlKgFVPfe5t3cMeWDwFCCCAAAIIIIAAAggggAACCFRVwPMqms5NKVec1lRuXBO5UcXbUin+n3hGlQm0Gum4nj2wGmm4mq5WAqymG1I6hAACCCCAAAIIIIAAAgggsBQCJoQqV0rxhujmc6VSjmdWmQ+ztK/ZDgKsZhvRxuoPAVZjjRfVIoAAAggggAACCCCAAAII1FEgCHxlc5Pxx8jUoMxMq2KloJm3/jX3QYDV3OOb9N4RYCV9hKgPAQQQQAABBBBAAAEEEEBgSQVMGGWW94VBEO8/Fe9TVcxpIjum8eywvMBb0nqScjMCrKSMRGvWYd3z+a80f0zcmmNLrxFAAAEEEEAAAQQQQAABBF5AwARVZlP1Urkgz6+oUMorDAPlStPx7yuVkspeWaXKzAbrrX5cf8kb5LrpVmeg/3USIMCqEzy3RQABBBBAAAEEEEAAAQQQWDoBs19VsZRXoZhXvjgd71tVqhQ1lR9fuiIa/E4EWA0+gA1ePgFWgw8g5SOAAAIIIIAAAggggAACCJxawCz9Gxo7qNHJQWULk1AtQoAAaxF4XLpoAQKsRRPSAAIIIIAAAggggAACCCCAQNIEzNLA0Ykh7dj3pHzfi/e04licAAHW4vy4enEC1j1fYA+sxRFyNQIIIIAAAggggAACCCCAQBIEzBsC88WcRicGNTw+oHxpOgllNU0N11/KHlhNM5gN2BECrAYcNEpGAAEEEEAAAQQQQAABBBCQwsK0Svuekb3lpRqdHIpDq2KlEG/KzlF9AQKs6pvS4twFCLDmbsWZCCCAAAIIIIAAAggggAACCREws60Gnv6hBicGNZXpTEhVzV0GAVZzj2/Se2fd84WvRkkvkvoQQAABBBBAAAEEEEAAAQQaVyAMA9m2s+AORF5F4dSwwtyEPMdVPtOuwclhjU4NybTNsTQCMwFWZmluxl0QOE6AAItHAgEEEEAAAQQQQAABBBBAoOoCkSx5vnRg8Ln4DYDmSDkprVy2Tp3tncqk2+Wm0rIsK/6e+ey66RPqMOFV8ZFvqjDRr9FMpwa6VyuyLNlhoFQYqOy4Va+dBk8ucP2lv3rSMcILgaUQIMBaCmXugQACCCCAAAIIIIAAAgi0iEAQuSqE3eqrbNFYOSV/50elsLSg3tuWHc/4CUvT8uzUMW20+xUVUycGXgu6ERfNSYAAa05MnFQjAetelhDWiJZmEUAAAQQQQAABBBBAAIHWEQgiRxPBGu2rbFAhbFMpSsuVL2WfVGX/ZxcEsW56SMum92uk91yNt/csqA0uqp6ACbDSJ5klV7070BICpxYgwOLpQAABBBBAAAEEEEAAAQQQWJCAWSZYDtuUC7vVX9msiaBHliKlrFApHdmbKsjvU2XgK4rK++d0H7OosKc0pfP6/1ljvZdqz+oL5nQdJ9VWgACrtr60/sICBFg8IQgggAACCCCAAAIIIIAAAvMWMEsFd5e3ajzoVT5sk2NFchTKlom1TnxXWFgeU2XkOwqnHj3tvXpKOZ018EN5qU7t3HB1vHE7R/0FCLDqPwatXAEBViuPPn1HAAEEEEAAAQQQQAABBOYpYOKpKX+Vni6fp0KYiWdbpc1SwbkcUajy8H8oGPuO5K6VKifOyLKjSC8aeFiZck7PbH6Fys6xe1/N5TacUxsBAqzauNLq3ASse7d/9cRofG7XchYCCCCAAAIIIIAAAggggECLCPiRq2ywXIPeWg37KxVFllwriGdczffwJh6XP/qgosrQMZemA09bBx+R65e0d+0VyrZ1z7dpzq+hwPWXsQdWDXlp+jQCBFg8IggggAACCCCAAAIIIIAAAqcUKIWdGvdXa1d5o0I5CiI7Dq5SChelFhQHVem7VVE0M3vLCoraMvKY1kw8qefPeKNGulYtqn0urr4AAVb1TWlx7gIEWHO34kwEEEAAAQQQQAABBBBAoOkFItnywoymwy6Neas15K9SJXJkS7KtUO5Rm7MvFMMJKlrR/221Df9A+9I5VVJt2jTepxVTT2tg5SU6uPyMhTbNdTUUIMCqIS5Nn1bAunf71+Y/3/O0zXICAggggAACCCCAAAIIIIBAIwmYJYLm4/nymcoG3SpGGYWRHe9xZSuMN2Y3bwdc7GHCq/XPfUU9e7dpastbVezYoCHvGVmlAWUqOU239y72FlxfI4GZACtTo9ZpFoEXFiDA4glBAAEEEEAAAQQQQAABBFpMYCaKsuRHKRWCTo35a7TPWysvcuKgylGk1AL3t3ohSisK1TvwkNY/8vsaeek/aeTsX1VkWYrCskp99ykq7pQOLSlssSFpiO4SYDXEMDVtkQRYTTu0dAwBBBBAAAEEEEAAAQQQOCJglgZWwjblwy6N+8tUiVzlw05NB51xaGVbJtaaCa/M51oc3WNPauPD71Zu04d18CU3Kkgdmc0T+QWVD3xRYe6Xtbg1bVZBgACrCog0sWABAqwF03EhAggggAACCCCAAAIIIFAdgUrYrlF/bRwotVtlpSxPnU5OQeTIi9IKopTSdlkrUgOnvaEJqSb8NfF1Zhmga/nyI0fjQY+yQfvh601I5SqMZ1otxeF6Bb3oG2cpt+n92nv538QzwI4/Ii+r4s6/YxbWUgzIAu5BgLUANC6pmgABVtUoaQgBBBBAAAEEEEAAAQQQmJ9AELka91doZ3lrHDKZN/zN7jQ18/nIvlNmTlTG8rXOHdKq1LgC2XIUqhh2KB+2y4tcTQTLVAgzMq2Y4/iZVObrZqbVzJ5WS3dkCqPa+J9/JdufUP/LP6Vyx8pT3tyEWKW9tyoKylIwtXRFcqfTChBgnZaIE2ooYN3HJu415KVpBBBAAAEEEEAAAQQQQODkAmbD9CeLF2oy6Iqjppm3+80u3Ts+XjJft+LYyexTZWZNma3VHQVxkGU2Wz+yBPDocOrIUsClDKyO7/GmJz6uzoEfqf/q/6dCz8bTPhLB9C5VDtyryGqX/NHTns8JSyNwA5u4Lw00dzmpAAEWDwYCCCCAAAIIIIAAAgggsEQCoRyVw0w8W2pveYuG/ZVyrUCpOLya+zEbUc1sxV6b/armXs2pz5x54+Dd6uq/RwOX3ayp1RfMuVl//FF5I99SZHVL3v45X8eJtRMgwKqdLS2fXsC674tfS+6fdqevnzMQQAABBBBAAAEEEEAAgUQKmL2oArnxXlSV0GyY3qHpwHx0qxKl4uWCrhXKtsJE1r+QojqzA3JLE4cv7Rj+d/Xu+F8auehmjZz1JkW2M69mvdEfyxv6Vykqz+s6Tq6NwA2X/6rS7pGN92tzF1pF4OQC1n1f/DoBFk8HAggggAACCCCAAAIItJRAZGYtHf6bUKTo0K+jyHzn8G9ik9mvhWEoz6+oUimr7M0EKtnc+DFuxVJBxbL5yCnc9CGpa+vhzcpnZ0s5VqiUWQxoNc9fxawo0urd/6zevu/Kyf/LYRNv2fUqrH2LDrz4Nxb2fIWeyge2K5j6xcKu56qqCtxw+a8RYFVVlMbmI0CANR8tzkUAAQQQQAABBBBAAIHECJhAKYyOzF4KAj+uzT/0eSZ8ClXxKgrDQL7vyQsq8WdzjrnWfN0EVLPXmIAqDII4xDLnmcN8zVxnzpvPYXdulbvl/ZLtxMv8ZvegSvKSv/n0b/ZcO/S1ct+PteqXf6Oxc96rwtprjwRY6S6VO1YspNnD10RBSaX++xXln15UO1y8eAECrMUb0sLCBQiwFm7HlQgggAACCCCAAAIIIFAlgVK5qL6DuzQ0tl9hNLMfVGdbzwmtB2GgUiUffz2Ok47JlGZ+c/yXZmZUzc6yMp/nF0TNu4t2txQV5Sy/UpkzfnPelzfaBd3je7T5+6/Q5Lkf0cHz36nITlW9C1FQVHH3LVJloOpt0+DcBQiw5m7FmdUXIMCqviktIoAAAggggAACCCCAwGkETIjkeRVNF6Y0NjmsvoGdzWNmpSXLUdtZH5Tdvr55+nWSnrTlDmjTw+9R0PVa7bvkA/LSnTXrrzf+iLyBr0jRzEw7jqUXIMBaenPueESAAIunAQEEEEAAAQQQQAABBJZUwCzJ6x/Yo+GxAypVivKDmaV6TXM4K+R0nq3M5hubpksn60jKL+ns775GQceL1H/5/5N3khlz1QSIQl+VfdsVTP+8ms3S1jwECLDmgcWpVRcgwKo6KQ0igAACCCCAAAIIIIDA8QJmf6pypaTh8QHt2vdU7Zfx1WsIzOwru0OZTTfK6TqnXlXU/L5uJaeNj31MmYnvqf+a+1RYtrHm9zQ3iPySSrs+psifWpL7cZNjBQiweCLqKUCAVU997o0AAggggAACCCCAQBMLxG/t88pxaDU6ORQvFyxXik3cY0l2l+zMKmXO/ENZTnvT9nX9c5/T8j33aeDi/6HJ9VcsaT/97LOq7L9PCktLel9uJhFg8RTUU4AAq5763BsBBBBAAAEEEEAAgSYTMHtbmf8zm7Lv3b9DB0f74zcBttLhrn2T3NXXNU2XrePGb3X/j7XqiQ9r6JKbNLbxqiXvZxQGKvfdrjC/e8nv3eo3JMBq9Segvv0nwKqvP3dHAAEEEEAAAQQQQKChBcIoVLlcUrGUVzY/qVxhStncpPKl6Ybu18KLt9W29cOy29ctvImEXGmCq57BR7X8wNdl++W4KjusKD35S01v/DUNvORDCtz6zDILSyMq992lKMgxE2sJnxcCrCXE5lYnCFif++I/1/gdsqgjgAACCCCAAAIIIIBAMwmY0KpUKmoiO6qB0X7lilmFYaAgCOLZVy15WK5kpeV0nKPMme+QZDU8Q++Bn2r9Y3+i0tq3qbzszMP9GT3jWnntqxQ6bl376E/8XJUDn5fc9ZJ3oK61tMrNX3H5G5V2063SXfqZMAECrIQNCOUggAACCCCAAAIIIJAkgSAMVKmU5QUVTeemlCtkNTY1FIdWHEcJWBnJstV+zodlpXsbmsbMvOqa7NcZj/535da+Vvtf9r5E9icKSir33a2wsDOR9TVjUQRYzTiqjdMn63NfYgZW4wwXlSKAAAIIIIAAAgggUFsBs/G6Ca2y05MamxpWNjeusleW71dU9tg0+5T6Vkap5ZcpfcZv1naAlqD1zuwBbXzo91XqfYX2X/xhBW7HEtx1IbeI5I8/qsrB7ZLdLYWtumx1IXYLu+YVVzADa2FyXFUNAQKsaijSBgIIIIAAAggggAACDSpgNl2veGVNTI1pbHJYE9MjKpRyDdqb+pVtub3KbP4D2e3r61dEFe6c8vLa/PAfywnWq//lf6ly27IqtFq7JiIvp+LOv5fCmT26OGorQIBVW19af2EBAiyeEAQQQAABBBBAAAEEWlTA7GV1YLBPg6P7NF2YlB/4LSqx+G67694id+XV8TLCRj2cwNO6p25X5/A3dODyW5RfvqUhuuIN/0jeyLekyDy/QUPU3KhFEmA16sg1R90EWM0xjvQCAQQQQAABBBBAAIF5CYyOD2nP/mc0lZ+QmYXFsXABu+M8tZ39Rw29cbsd+jrjiTvUve8m7b/6S8quevHCQZb8ykjFZ/9OkdUmeQNLfvdWuiEBViuNdvL6SoCVvDGhIgQQQAABBBBAAAEEaibgeRXt2ve09g3uqdk9Wqlhy12h9Blvk9N15C19jdj/1X3f1qqn/rfGz/kTDZ33lobrgjf0b/JGvtNwdTdawQRYjTZizVUvAVZzjSe9QQABBBBAAAEEEEDglAJmieATz/5M49PDMpu1cyxewF33W3JXvryhlg62lSaVyY8e7nyqnNPqx/9ck1v/REPnvkVRAy6DDHJ7VO7/jBQWFz+otHBKAQIsHo56ChBg1VOfeyOAAAIIIIAAAgggsEQCJrDa2fdL9Q3sWqI7NvltLEdO14XKbHlHw3TUiiKt3PcdrXj+K3LyPz9ct995ncrtngYu+oi8TE/D9Of4QkvP36owz/NdywEkwKqlLm2fToAA63RCfB8BBBBAAAEEEEAAgSYQMG8YfPy5h+UHXhP0pv5dsDvPU2bzO2U57fUvZo4VdI8+ozMefqcKG96usbN/75irit0bFNrOHFtK5mlB7nmV996czOKapCoCrCYZyAbthvW5Lz3Ajo0NOniUjQACCCCAAAIIIIDAXATKRV+/2PkjTeXG5nI655xGwHK6lDnzA7Lb1zWMVVtxQpsf+nMpdLTj1Xc0TN3zLbT0/J0K88/M9zLOn6PATICVmePZnIZAdQUIsKrrSWsIIIAAAggggAACCCRKoFIKtOsXozoQPKTI8hNVW0MWY3covfFdSvWc2zDlp0uT2vToX0qh1H/l/5TXtqJhap9vof7kE6ocuF+KmGk4X7u5nE+ANRclzqmVgHX/l5mBVStc2kUAAQQQQAABBBBAoJ4CUSQ9/4spjR8oKdvzlDxnop7lNP69rYzS639TqRWXSbIaoj926GvjY3+ljolh9V/1URW61zdE3QstMiyPqdx3p6LK8EKb4LoXEHjllczA4gGpnwABVv3suTMCCCCAAAIIIIAAAjUTKBcDHXwup7H9JaXSloqZg5p2+hVZzExZKHpq5auVXvsayXYX2sSSXmeHgVb0fUurn/krDV5yhybWX7qk96/HzaKwosq+zymY/mU9bt/09yTAavohTnQHCbASPTwUhwACCCCAAAIIIIDA/AWKOV99T2aVH/fkuJbslKWKndW4+0vZQZsCJzf/Rlv8Crvrpcps/D1ZqY6GkLCiQGt2PaCVz35EIxd8RCNn/bpkNcasscUCe2M/kzewfbHNcP1JBAiweCzqKUCAVU997o0AAggggAACCCCAQJUFSjlfe34xpcKUL7fNPpxZhJYXB1gKMvJSZjN33uU0V3rLXa22s94nK90710uW/DyzVFBmzeihY9nIk1r32J8rv/a31H/Zny55PfW8YVgaUWnXP9SzhKa9NwFW0w5tQ3SMAKshhokiEUAAAQQQQAABBBB4YYHADzU+UNbQnoJMiOVmbFn2sddMus+qZI3KijIK7SKkcxRIb3iHUr0X6QTQOV5f69OWjTyrrqF/Uyr/7OFbpQtjKvVep4MXfkCB0xhLHqvpVNr5TwrL+6vZJG1JIsDiMainAAFWPfW5NwIIIIAAAggggAACixQwk26yY2Xt+tmUwiCKlwyaj5OtFss7g5p2dssO21lGOEf31MrXKb3+dXM8e+lP6xnbrU0/fL3Kq39fkbvscAHT6y7T5NqXqpLpWfqiEnBHf+JxVQ7ck4BKmqsEAqzmGs9G6411/5e/wdzhRhs16kUAAQQQQAABBBBoOAETLnnlUFPDZXnlQNNjFfleJNux4qV+jmOpe1VGvWszSqWPmzp1XG9NW6WCH7cxNVxRdrgsy7HkpKy4vVMdgVXSSPo/ZYUphXap4QyXtmBbTvdLldnyrsS+cbB9+oA2/eSt8rsv0v5L/6cqbUcCrKW1St7dwnyfSntvlaJK8opr4IpeeeVvKO1mGrgHlN7IAgRYjTx61I4AAggggAACCCDQEALFnKcDO3IqFwIVJ/24ZrOxuu3YiswUqlAKw5l/V063O9p62TJ19Jy47MuvBCoXQg0+n9f0iAnAQtm2mXF14nLBU8FMuM/K07SCeAkh/5Z9Kicr1aPMmR+Q3bYmkc+Y6xW0+ZG/UTq7UztffY98tzORddarqCgoq/z87QpLe+tVQlPelwCrKYe1YTpFgNUwQ0WhCCCAAAIIIIAAAo0mUCkFGukvaHRfSV4xmAmtzId98llSUSj5lTBeCrhsXUa2bX4fKQqjOPzySqFkzbxMzsy0ioOreb5YruSMKmvvVWAXCLBO9kBZGcl2lV7/u0otvyCRj5zjl7TuubvVdfAb2n/FPym//OxE1lnXoqJAlQNfkT/1uBQx27BaY0GAVS1J2lmIAAHWQtS4BgEEEEAAAQQQQACBFxAwG6pPDJQ09HxBxawfB00mcDp+U/VTNWECrMh8mBMOBVSWdWRfK8s++R5XcxmU0Kpo1P2FAotN3E/qZaWVWvkKpdclc98rKwq17plbtaz/QQ1c+hFlV1+gaL4p5lwelCY4xxv9obzhB6XQhLUc1RAgwKqGIm0sVIAAa6FyXIcAAggggAACCCCAwHECZjVgcdpT/1NZTY968Wbqp9vPaqkRI4WK30Zojyz1rRvifnb7WcpsfrcstzuB9UbqHntam3/weo1edJeGzk5myJYUuCC3R+W+26XIS0pJDV8HAVbDD2FDd8C6/yts4t7QI0jxCCCAAAIIIIAAAvUXiKTCtKfR/qLGD5YUeDNvA4w3VJ/nEr+l6My006ecw95AJ1g7PUpverdSXWcuxTDM6x5m5tWykae0/pE/VXbL7+ng+e9TZDvzaqPVTg7LYyrt/r9SaoVUGWi17tekv3GAlWYT95rg0uhpBazPE2CdFokTEEAAAQQQQAABBBA4mYDZeD035Wlwd17ZoUq8IbtZLmjeBpjE4Gq2DyV7TBOpp9gD67hBTa1+o9JrX5GIhz3ll+UER2YOuaUJbXjkQwrdF2n39X+vyCK8Ov1ARSo+89eKlJLCihSVT38JZ7ygwKtezlsIeUTqJ0CAVT977owAAggggAACCCBwKoHQbFZuSZWy4o2j0unEWJn9qaZGy/Gm6lMjZU2PzIQMsxu0N8J2RL5V0Ij7KAHW4afKkt35EmU2v0OWU//ZJV3jO7RqzwPqGNiu+BWVZqTstApr3qADl/x3+am2xPw8JL2Qcv/9Cgp7pagiBdNJLzfx9RFgJX6ImrpAAqymHl46hwACCCCAAAIINJiA58maGJfd97wiM4lpOjsTZKUzipYtV7RuvWTCrfZORSbUct2Z7x9/mHN8/0g8YYKwIJCCQ19LuTKv+ItSKfM6vzkFZOWir/GBssb2FVXOB/GbAg+HVovYVL0eI2T2wRpK/1jmM4fZKD+lzKb3yOk558iu+XWC6cwOaNOPfkOlla/Q0Iv/5MgG7ZYjr32VAsKreY2MN/qovJFvzuyDFfI2wnnhneRkAqzFCnL9YgQIsBajx7UIIIAAAggggAACixcIAlmTE7KGBmTv3T0TNJlQyrZnPsyr+MzXZt7JJ5md0uPPh/7HcRS1tcdfsioVyaucWNOhkCvq6JRVyB/5/mwbx10RdXZJ7R2K2jvi7wxme7R3qicuy3KseImgCa8a+RhzH1fFmmzkLlSndislp/tiZTa/tTrtLaIVt5zVlp+8VXYQqf+qz6rUtWYRrXGpEQgL+1Xad+/Mnxv+GCiLFCDAWiQgly9KwPr8V7556L8AFtUOFyOAAAIIIIAAAgggMD+BwJeVzcrqf172wP545ktkHwquzLLB42dWmb+AxuGV+TwbZB36dXxn88VDoVL86aiA6VTr+g6HYcf/J/HR95Amo1V6xj87Xs3ottmyTJ0NfuSc/Zp2djd4LxZfvt15vjKb3ybLmQlB63WYPa82PHmzOge+pb5fuUuFnjPqVUrT3bfwzP+QUmulMs/7Ygf3VS9/k9Ju/ZfZLrYfXN+YAgRYjTluVI0AAggggAACCDSGwPGhk+/JKhRmZlv17ZnZ48rMsnJSM0sCE3zkwy7tLG1WMXTVngkVmuWLDXyU7XGNp55s4B4spnQTQEaS3abMpnfJ6X7RYhpb9LVWFGl1/w+06om/0IErb9fU2osX3SYNHBEo992joDQkeYOwLFKAAGuRgFy+KAECrEXxcTECCCCAAAIIIIDACQJmn6lyWfbosDQxLis3PbMEsFiQVS7NbMpuZjCZpX9m/ynHOfk+VgmkLYVtGvBWa8xfpsBJyXEt2U7jzsYaTP9QihxF1pG33SWQvfolOcukMKdU7w1Kr3utZNcxjIwirer7hlY/83GNnP//aWzzDYrMzwhH1QQqB/9V/tRjUjBRtTZbtSECrFYd+WT0mwArGeNAFQgggAACCCCAQGMKmP2rigVpOitrbHRmKaCZdTW7ibptKXJSR/a0OnopXyO8ru8koxLJUjbo0Y7SJvly5KRspTKNGWINuT9VGIdXrbariC3LXam2cz8sy67vzL+2wojOfvAKZc/9qA685O2EVzX4k9Ab/q688Uckf6QGrbdWkwRYrTXeSestAVbSRoR6EEAAAQQQQACBpAv4vqyJMVnZKdk7n5E8byagOvrDLAmc3YQ96f1ZYH1+lNL+ynqN+T3yrJRSabvhNnYfdX8uz8ouUKBBL7PbJbtD6XW/rtTyl9WxE5E6swe06Sd/qtKKl6j/0r9WmGJvoVoMiD/1c1X23VeLpluuTQKslhvyRHXY+vxX2cQ9USNCMQgggAACCCCAQBIFPG/mTYGDB2c+T2elKFSUMrOrDm24PhtgJbH+GtVkZmMVg4wOeus1GvTEAZaZkWU5NbphlZsdc5+Ur5xC6yRvbqzyvRLTnN0mp/tlSp/xZln20gRGZo+r9vyoVuz+qlLT356hiKRMcVSyNmnPdZ+U17Y8MUTNVkiQfVrlffdIUYstla3BQL7qKjZxrwErTc5RgABrjlCchgACCCCAAAIItKxAPifn0YdkTU3OvNnPsRWlXMmEVxyHsghLY/4K7SuvUUlppTK2HLM3VsJXFk6mnlXRHmqtUbQzymz5oJzOjXPu9+EFlrO/MGGtWSp71DJYywS6h/eumjlxdvjTxXFtfuS/KZX7hULnyH5b+TPepZHz/lCVdOeca+HE+QsEuZ0q939WsrtZRjh/vmOuIMBaJCCXL0qAAGtRfFyMAAIIIIAAAgg0t4A1PCTn8f+MN2WP0hsuiBEAACAASURBVK5kNl1v0L2rlmKkvDClA946jXjLFc5u8p5Kboo1be9VLtW3FDTJuIfdrvT631aq98S3/DlhEC8FDWXJzKybzaqi6MivzUwq8/XQsuVEgYKjptqlQ0/eoc3gZ6+IW7Kk3pFfqnP0YY2f9Vvy2nuSnmsmY6yqWEVYHFS57w5FUSgFLbZktoqOpikCrCqD0ty8BAiw5sXFyQgggAACCCCAQIsIhKGskSE5D/945m2BmTaCq3kMvRe42lE+S9mwPV5h6bY7icz98hpQNr1jHj1r7FPtjvPUdtZ7NLvG0wRVfmQrjCwFx8VK3ZWc0mFFy4rjSkUVdZdG1F4eketPqz2/5/DPQ7ltQ4xSTq+awYmkXPs6eU67xjrP0HhmuSqptkMb5c+EmSbYMu8ZtK1IjsL4M0ftBMLyuMp7b1MkV/IGanejFmiZAKsFBjnBXSTASvDgUBoCCCCAAAIIIFAXgTCUvWeX7Od3Sr6vyE0TXi1gIMLI1oC3WuP+cuXVLse1ZDtWHGgl5SjYg5pKPZeUcmpbh5VWasNbZS2/WGZsTGCVCcrqKk8q7efUXh7W8vKEuotD6ijulx2WF1WPme1TmHpGxalfqGPjf5HVtU7FzCpNtK9RLt0rL9WtcnqZJjO98X3ag5K8VFq2CbcsE63NBF0cixeIvGmV996qsDy4+MZavIVXXfVmpc3/T+BAoA4C1he++i/8qVgHeG6JAAIIIIAAAggsqUC5JKtQiAMpZaekUlHq7JTSaSnTrqinJ97Tx8pNy3r6yfgtg3Jdib+oLGqYZmb4pDTkrdJ+b7Uiy1J7OlKQkP3DWiHA6gylkiUFHedJW96rjjDQuuk+rR/5kTJBTm5Qlh16csLSosb6+ItL+SFNj35bnb1XqaPn3GO+HZmlirYr386onGqT567S+LIXa6B7q7Lp7kNzwcwsrUiumaVlhVWtrdUaC/2iyntvUVg62Gpdr3p/Xx0HWEvz8oOqF0+DDS9AgNXwQ0gHEEAAAQQQQAABSZ4nVcpSGMZL/sxny4RWgwPS1GS8HPDwCqmj97CK/ykzmtmQ2hy2PfNhgivTDkfVBCb8XvVX1qgYZtTllFXJmOWFVrznUr2Okj2qydQzitScAYl5gm1ZanM3q7fjAm3wi1o18Z+HlvPVTr1cGND06HeU6bxIXb0XyDJ7x83x8FM9Gu69VENdG5XLrFQ51RWHXGbiXsoK5Ua+Qtv0imOuAlHoq/T8zQqL/XO9hPNOIUCAxaNRTwECrHrqc28EEEAAAQQQQGCxAl5F1uiIrOd3zcywCgPJSc0EWaXCzNI/E0TFYdSht+LNrmGbDa3M5/iNaqYYaybAYqP2xY7MSa83s7Gmgu54aeF02K6UE8lKp+q2rLBZA6z2yNKqyNHa0JUrS52RpbZoadZuhmFFEwe2y207T10rLpF91FsH5/tQee4yFdK9yrZv0OjyCzXSsS7eYD60Ha0pDCrfvlyB+XnneEEBAqzqPSAEWNWzpKX5CxBgzd+MKxBAAAEEEEAAgfoKmLDJ92RNjMt+8hdSLjvzdkCzHNCETya8mg2u6lspdz+FgAkhxv0V2lNeJz9yZKdsORl7yXPDsjWhCTMDy/IaaqxM1nr0PigmmnLi0MrW2YGr3shdkv6Yfa6iyD98ryisaHLg+7KdSMvWvn5R4dXJOuC7y3Vw1a9o/zKz1HB5nDkvL02qkm6Xl84wK+tUP2/MwKrazwMBVtUoaWgBAgRYC0DjEgQQQAABBBBAYLECYRQqDENFXkWuH8wETiaAMkv34le9h5LZJ8nMqIpnU5VkFYvx3lVmfyoTXsXBlflbvNmrKiF7Ki3WpdWuD+RozOvVuNej8ahbTsqSk7JnX5JXcw4TYE2mdii0qrv/U60Kdw+lVuZTYEmdka0VkaNV4cyH2QJ9qY5KeULF7BOqFA4cuWWUl9t2pjqWXaR0+5qalRLaaeU6z9RE+zqNdZ+rkc6NCuxUvOl7yjIfzbkkdKGgzMBaqNyJ1xFgVc+SluYvQIA1fzOuQAABBBBAAAEEFiQQBIFGJ4b0/P5nlStm4za6ldKl06HavEMh1uzGNuZv6EdPMzGh1uxSP/PZBF0mtDIzrjgaXsC8FS8bdGtPeYNKSs8EWenaz8gqxQHW04qsI7OIkojZFUo5s7LVzLSStCZMaX3oanXoyJG15DOPzMyrqeHvKagU1b36atlHLeNzUt2yluxVk2Y5YUq+3aax3sv03JprlHM7Yg/XCuIgi72ypCgoqfT8LfrL1x5Q2ZO8Q4/70KT0nWek0XwSn/pk1kSAlcxxaZWqCLBaZaTpJwIIIIAAAgjURMDMpIqiSEHgy/ePLMMyv49nWR36fr44reHRgxqeOPYtWOlI2uKn9KJKambm1eym6uavneb35jB/GbbN3lQO+1PVZBST02gQORqsrNZk2KVs0CHbtWU7VrzZey0ykZI1fijACpKDcFwlJrBqj+z4Y13oaHnkaFk0903Rq92xKAw0Pf4zeaWDWrbmdUqlu6t9i0W1l+06R3tWXamJzk3Ku10zM7IUyrFa9+Xz7bavd595s7b09MeTW52jcv/xaen+n0o7hhfF3jIXE2C1zFAnsqPWF772L637J1kih4SiEEAAAQQQQCDpAoViXrl8VvnCtEYnB+UFFYVhIDPDavaIlwceCq8iRfL8yim7tTFM6WK/Pendpr4lFDCbvU+HnXGYNRF0xuGVWVropKs7n6Zoj2gq9Wwi30KYiSxtilytDJ14qaD5vZltVc/DhNW58Z+oNP2kule/UW2dZxyaKlnPqk68d2S7KqZ7NdpzgYZ7XqKhrg3x8sJ05CllR4pqkYYmi+CYakyA9Ufn3qz17f0Ko5l/D5g9zITWkSlp+0PSztEEdyIhpb366jcr7WYSUg1ltJoAAVarjTj9RQABBBBAAIEXFJidTWU++2ZWVeCp4pWVnZ5ULj+lyemxw8v/qkG5KpDGHOnXKt11/qt5NXpDG7UQmPKX66C3UoUwo3LkqtutyHMzMyHEIvOcegZYx2/EbuZUmZCqO3J0jp9Sb5RK2NswIxVz/cqNfV+dvTeoo2dLLYa76m2a52Sq5wI9uf6VKqSXy7dddQcFhU5KUYssQe50PL3nnJu1pm1Q9ileWGBmYn3uJ9LOkaoPQVM1SIDVVMPZcJ2xvvC1f2UGVsMNGwUjgAACCCCAwGIFzHI/z/fk+xXli7l4+d/k9KiCMIgDKzObqlwpxr82IVatDrOE0PzH2NV+p3oi9rOqlXMztFsM2zUe9GjU61U+ysTLoOLVpWZmlhMpXMAG5kV7SJOp5457p9/SaJmn3Tz7HZGtVZGj1WFKyyJbbZG92FyuJh2olMaVHXlQmY5z1L3ysprco5aNBk6HJrq36mDvJepfdp4yQVlhKqW2yFNolic38dHrlvQHW29RRypUR2rgpD01z+LAuPTln0m7mIl1yqfh1Ve/hRlYTfyzkvSuEWAlfYSoDwEEEEAAAQQWKBDFe56bvyKXKyVVKmUVSwWNTQ5paPxAHE65qYwqXn3fvpY6FGCdF6a1NWBZxgIHu6UuC+M3F67UkNer6TCjyMQ9lpQy+2WZSUtHr486jUzBHtRUHGAt3TE7aWxN6OiM0NWG0F26my/wTn4lq8nBr8jNvFjdqy+TbSe/5hfqasVdrkfPfrcm2lYrMi9AtUK5Tfzmwl63qD/Yuu0FA6xZr3xJuus/CLFO9fwQYC3wDxEuq4oAAVZVGGkEAQQQQAABBOolEC/1i2dTVeR5lXjGlHnDnwmrpnOTKlUKKpRy9Spvzvc1+2Bd5LcncubJnDvBiUsqYIKrQtihYtimSb9L5SitqaBDlsmzHCve89+yXngD+IJzUFPOzqrWbQKqtkgqHkqq3EgyT3Zn5Kj30EdbZMWbsjfCEUWBJgceiF/WsGzNG+S4zbNf3fjyl6lv+Us1sOxF8XS+9qhy7A7njTBAc6hxXWZa/2XrrXJt65QzsI5u5uC49JVHWE54MloCrDk8cJxSMwFrO0sIa4ZLwwgggAACCCBQWwGzBLD/4B71DeyIN0w3G6ebt/4d2Uy9MXZKMH/Zt2TpGr+jYf5SX9uRpfX5CpgwK4zsOMSa9JerGGY05C+Lm4kDrXi5oa2M48t33Phr5sg5+zXt7J7v7U57/uybA9dHKZ3hp5SWLfO1em/CfrrCw9BTpTCsUm7P4VMDb49kdWjZ2l9Vyu06XRMN9/3QdlVKdem5Tb+jg12blVKgXm9K+baehuvLqQre2D6ud599u2wrNacAy/x/jgmzJ9aP2dj9eNPXsISwaX4uGrEjBFiNOGrUjAACCCCAQAsLmNlWhVJe41Mj2t3/tMp1XgJYraFIydIlfpvWhqlqNUk7LS4QyJHZAD4fppUNOuRFrvzIUSVKKWWFCmSr3HFA+cze+A11GTNTKpTiZa2WVDn0MTuTqj2SfEneofDLzJ8yu1WZANaNLKXjX9taIUc9oaPuBplhNfuY+F5eubFH5Hv75KS6Dz89buZFSnesU7qtt6mfqNBOa6rnJXpmzTUqpFfKd9NKK5BlmThnkW8LqLPclo5RvfOs29Xpjs2rkuEp6YsPSzuG53VZU59MgNXUw5v4zhFgJX6IKBABBBBAAAEEzOyqfCGngZF9Gp0cUrGUU6lSbCoYEwKsj9K6wGcfrKYa2IR0xmzw7kcpeVFKldDMsbFVCdtUsnyV2g4qb/syryooKlTRiuQcyizSZqnfUZvDm5CrIzRLAp148/WUzLIzxZ9N9GpmEjbkEUXKjj2sSmG/eta8Um7m2LDKMlPYWuTwU50a6blAz2x4rUpORrYVqTMsy0817r5fZ3cO6h1n3SHbMrMQx+c8kmYfxaHJmRCLjd1n2Aiw5vz4cGINBAiwaoBKkwgggAACCCBwegGzn4w5TDhlfhWGQbzHjFkGaDZYN/tXTU5PxEHV8PgBtaU74v2smvnoDqXr/K54VgsHAvUUqFiRTHjVEkcUqZDdrcLUI+pZ83ql21a0RLfn0smntrxdB3q2yooi9fpZZTt6G/JPp62dA3rHWXeqLTU5l26fcM5UXrrnR9KukZk3Z7byQYDVyqNf/74TYNV/DKgAAQQQQACBhhIw+04VijnlCln5gaeUk1LabVMm3Xb41dpB4MVvAAwCX2EUKQiDOKAyh1kCaK7LFacUhmYD9kocWpXKRfmhH19TLOcbyqSaxb7Ed7U1bKtmk7SFAAKnFDDh1dPKjf2HunpfqfZlL1YrzbY63YMRWa7yHWeob8VlOrj8/Hj/tDazkHQeb7o83T2W4vsv6u7T2878tNLOwl/owcbuMyNFgLUUTyz3OJWAtf3r/9rqITJPBwIIIIAAAgi8gEC5UpJXqSibn9TYxLAOjuyNZ0qZ/4v/KTqepHFo4dDsztCz/0Z96L8yjv2PjdmZV/wnyMnYDef1XmfD7R/EDxECjShQKY1qauhf1NZ1hbpXvrjh93qq1RhEZslpZqUeP/PtGm5frW4vp5QjVVKNseR5NsAKoi61pwYXzJQtSJ/9QWsvJ3zNNW85/I9VC4bkQgQWKECAtUA4LkMAAQQQQKCZBUyI0uPm1KEd+uGTO/X8qOTNTKDiqLGAG0lnhK4uCNoacqlOjXloHoGqCXiVaWWHvyvHXabla19RtXabuaHIctS/5gbtWXWlCm6X2qOKUlagwE72yyeuXPmo3rLp81UZmsEJ6cuPtO7G7gRYVXmMaGSBAtb2r3+Lf/5cIB6XIYAAAggg0KwCy9NZnd/7qLrTwypWpIEJ6T/3SI/2SSXzGjKOmgk4h+azXed1qrPB3uJWMxQaRqDKAoFXVHbk3ySrSz2rrpHjdlT5Ds3bXGTZKqVXaM/aV6mv9wK5kR8HWZ6b3NlYv77++7p81U+Uceb3FsKTjaJZHj+alT76QPOO8Qv17DXX/CYzsFpz6BPRawKsRAwDRSCAAAIIIJAcAdf29bIVj2lV+54Tiqp40i/3Sd9+SprIE2bVctSWR46u9jrkMA+rlsy03QICURQoDMrxCyNmj/zEw/JK+9Sz+v9n776D5LjyO8F/M7O8a98N70GAAAgSJAiCBuRwOCTHaTyHI400I82ubm9vFXeKuL8vNu4i9mIv7iK0tyudtFrtSKPxovcECAKEJ7z3Ho3uRntXXS7dxatGwxANoLrsy8xvRTDIGWS+/L3PL+G+9fLlHyAQbvKAQvmnaKlBDNatwNFpX0IqmEBzuh+ZcEzK1Vh/vuANzIientIbCO8nJr7Y+etPgWTmfke668cZYLmrn06bDQMsp3WM9VKAAhSgAAUqKKAqFpY3HMSM6Nm7XkUs3R5LA1cHgO6R8W+it9798ApW6/6hF5kBLDW5obv7O80ZVkrAsgwk+/dCz7bDtm8uH9W0JkQbViEQbq3UpT0zbibYgvbmNTjdshYxfQxhO4tUKC7V/P/ygZ+jNXKirDWJ3wvPXwP+y8ayDiv9YAywpG+RqwtkgOXq9nJyFKAABShAgcIFxL5X8+NnsLj+QEEn9QwBDTFA7NueNYBtx4HNZ5F/+6Al3kBoiX8rgKIBShiwRm+Oq8UB/0wgc6qga3n1oAAUPKZH0cRHCb16C3DeJQiI8Gq0/zD09EnEmr4CzRe9MZrmD0OVfN+mEqZek1OzoenYufAnGPPH0JLpRyqSqEkdX7yoChv/20P/sSyPD042obEM8O/f8s4+kQywpLitPVsEAyzPtp4TpwAFKEABCtySJykW5sYvYHHdvimxZHUgowN117ePEY8YprJA3yjQnwT60jFks0mMpoHuYaBjVARZaUDxAdFVQHLvlK7ntYMVW0VzegEe1YbgV3Jemz7nS4GSBMaGjiM9cgSxxmcQis0uaSyeXJhANtCAS81P4mrjKuR8AfhVC9rEW2kLG6LsR00PjOHfPfgfAFhQlfJt4jjxZY2mAmevAf+4DRjLlr186QZkgCVdSzxVkPIaN3H3VMM5WQpQgAIUoMAXBRTYmB1rxwP1e8r6h/uJ64g/5IvVWOIthiNpFee7LPz+QAzQooDezYbcQ0CzQogllyNmaVgRvsAQi3cLBQoUyKR6kOz7BLHG5xCKzSrwLB5WDgGxyXsyPAsH5v0QyUAd/IoJv3Jz/7FyXGMqYyyP9eLHi/6vqZwy5WPF44T5jd3fnfKpjjvhRW7i7rieualgBlhu6ibnQgEKUIACFChCIO5PYmXTTkT9A0Wcff9TbGgwrQB8avrGwYYJXOwGNp0COgaB4Zs/dP8BPXKEAg1xcx7C2Zkwshaa1BEsCl2GqvAF0h65BTjNIgX07AAGO3+NcHw1Yk1roIjHmPmpuoDpi+XfVHip8SGYviD8MGvy69f3ZuzBYy1vAIoNBZUN0i71Av99q/iypurcVbsgA6yqUfNCkwgwwOJtQQEKUIACFPCwgHjj4BNtnyDiG66Jggiyzl0Dfr5tfB8tfm4KRM05+QBLEX/lMm2YGQuNyhAeCF8e33iMHwpQ4A4BPTeCkZ6N8AWmIdH8OBTVT6UaCojVWEOxhTgz42voCzfDr9j5FVnV/Pzr+e9ift0OAJUPsMSK48t9wF+tr+YMq3stBljV9ebVbhdggMU7ggIUoAAFKOBRAU0xsazhEKbf442D1aK50jv+Jqdcdf9eU63pTfk6mh1Ek7EK4t8TH8uwoWcttGkDmBfsgugfPxSgwE0B08hguGcrYGfQOPNbpJFM4NTsH+BSwzJYqg9BpTqrscSK1f916f+HhuDFqmqIxwn/8yfjK7HctmaWAVZVbyVe7AsCymvvrHfbzyk2mQIUoAAFKECBAgQWJc5iTvz4bY/2FXBaxQ55dz/w6cmKDe+ogWPWXMSNuQBuX2klQiwzayGhjmFR6CoCigd2DHZU51hsrQQsM4dk/y7ouSEkWp6FP9hQq1J43bsI2IoPfYnF+ccK+yJt8ClWfm+sSq4nbQ6k8BdL/08E1ExV+yL+gn1tAHhjL3C2t6qXrvjFXnzqewj4b365UvEL8gIUuEVAee1dBli8IyhAAQpQgAJeEmgKDmNe/AyaQuekmvalHuAXO4CBManKqkkxrfra21Zf3VqEz9SRzdgQr4ZfFr6EiJqqSY28KAVqKZBN9SKX7rtRgqlfQy59FImWVxCKTa9labz2fQRMLYyTs7+PS/VL8m8oDKpGxUKsZfEO/OGCv4FWo7e4jmWAn38GnLt5qzr+/njxaQZYjm+igyfAAMvBzWPpFKAABShAgVsFxNsE4/5RtIXbURcYRizQj6HsNAzl6pAzw/lHzhqDfWgJX4Kq6NLhZXXgbzYCl/ulK62qBYWt6ag3HrjnNVXTRDanIGjnsCR4GRGNIVZVm8SL1UzAti0kB/dDT3dD1W5uzq5qcQSjDyAYaa1Zbbzw1AT66x/B8WlfwkioEUHFglaB1VjrWj7HV2e+WfHN2+8184Ek8LtdwGmXvHSXAdbU7nMeXV4BBljl9eRoFKAABShAgaoKhLUcmoL9iPhHEfUPoi7QhcAtb/ubeATNstV8Xark+yZtPQG8caCqhNJdbFruGYg3EN7vIzYLNjIWfJaO5aELCGvVfUTmfvXxxylQbgERXo0NnUF6ZBfiTS8gGJlx8xKKwrcNlhu8CuOlQtPQ2fwUTjWvur4ay4T4MqYcH7H/1bdmvI81LVvKMVxJY4iVWP+0BTjjgscJGWCVdCvw5BIFGGCVCMjTKUABClCAArUQ8Ks6FsbPYnb8CCw7AM0leyH1DAP/4b1aiMpxTb+dQLO+quBiRIilp03E7BQWh9oR0rgnVsF4PNBxAplkO5IDnyGceAzR+mWOq58F312gq/EJnJz+JaT9MQQUM78/VqmfgGrgJ/N+jwWJg6UOVZbzk2ngl9uBUw5ficUAqyy3AwcpUoABVpFwPI0CFKAABShQCwFVsdAUHMS8+GHUB3tr+lhEpeb/XzcCJ65VanS5x41YM1FnLJpSkRMrscJWGitCZ3DLU1VTGocHU0BmAT07jJHeDQjFViBStwSKMr6qlB93CNiKirHQdFxtWoNzzY/e2OBd7PVX7CeiZfCXS/8GMX9XsUOU/bzBJPDOfuBge9mHrtqADLCqRs0LTSLAAIu3BQUoQAEKUMAhAmJ/kOmRDjxQtw++Kr9RqZpElg1c7gY2HAUuDwFibyyj9C/jqzmFoq6lQEWdsQRha+p7+NgWoGay8EHH0tAlBFT59jgrCoUnUQCAaWbQf+W/IRBejETrC1BVP11cKmArGjpa1uFE2zPQtSBCigHxKGAxnyXRLvxk8V9J90WP+NLhn7YCh68C4r+d9mGA5bSOuateBlju6idnQwEKUIACDhLwqybqAkMIa6NImwlkzSAm9qr64jQSgUFMC19BS/iig2ZYeqkjKeDcNeBSPzA0Nv4Hfrd+VPjQYDyEgJUoaoqWaef3xGrURrEk5K37pCgwnuQIAdNIY6RvGyxjDPXTvgrNF3ZE3SyyNIGxyBycaXsO1xILoagq/IqZf/PqVD5fazuEp6a9fv0R+6mdO5XrFHPscAr49Diw5XQxZ9f2HAZYtfX3+tUZYHn9DuD8KUABClCg4gJi5VRQy6El2I94YBBB3xgCahJhbRDikUBFsWHbYtta5Y5aDCsMn5rOb2or+wbslYQU31KLlVliNda1IaBrANh7Ebg4UMmrVndszQ6iyXgEmh0q+sITIdYcXy9mBuV5bKboCfFETwtYlo6R3t0wsu1omvUKFNXnaQ+vTV6sxhqOPYjtC1/NT128qdA3hReR/C+Lf422qBz7X03WO/F72seHgfXHnNVZBljO6pfbqmWA5baOcj4UoAAFKFBTgagvBbHBuk/NoiEwgJZwB2L+nprW5NaLmxYg3uzUNQic7AIGxgCxYiuZBXqTzpu1CK6ajceg2iX8JV1s6i5WYdnDeCB8aeIllM7DYMWeFDD0sZvztm1kkueQSZ5AvPnLCEamedKEkwbGwrNwvu1ZtNcvRdDWoWjqfVdjtQXG8D8v+98xps9A1N8p3WOEE30VX8p8fATYdNI5nWaA5ZxeubFS5fV3N8i1ntKNypwTBShAAQq4XkCsspoXP4fpkTPQVAOaeNxB0aX9Q7MbGyICrXRufJVW5yDQPQSc6gTO9jljtj47ghZ9NZRJVuIVOoP8WwkzFpowjMUiwOKHAg4QsC0DY8NnkE0euFGtLVadqk0IxZYikpgPKHeuUHXA1FhimQQsNYie+odwofUpDIZaELRz8Ks2rLts5v9Y/WV8d+7fImM2IOLrLVMVlRnGMIEdZ4A391dm/HKP+tLT30fAHyz3sByPAgUJMMAqiIkHUaA6AuIvvBHxaJGWRVIf3w+HHwpQQH4B8Rhga+gaHmzYlV95xY88AiLQ6egHxH4jBy8DnSPjIZdYpZUz5KlTVOK3Y2jRHyupKNsS+2CZWKB15h9Z5YcC8gvYSI2extjANkTrX4Sq3fyzTyDceNv/ln8urLDSAjl/I/bPewWjoRZYvsBd98b6gxmb8GTrh5Uup2zji9+rNh4HPjsBJHNlG7YiAzHAqggrBy1QgAFWgVA8jALVEKgPjGJl02fwq2mkjAZ0p2ejc2w+MgyyqsHPa1CgKAERPLeFe7Cobh+C2mhRY/Ck6giIwEpVAPEa855RoHcE6BsdfwTxnASrtIJWE5qMFSVhKKYFM2NgYbATDb7BksbiyRSotIBtW8gkryI5sAWR+tWI1j1Y6UtyfBcIWFoYA/HFON+yDn3RNoRtHSE7h6xvPPz0KRb+eP4v8EDiuKNma1nAmU7g9X1yPwbPAMtRt5XrilVef4+PELquq5yQYwXq/aN4vPW9O+o/P/IELiXn3/XtZI6dMAungMMFxMqrxYnjmBMTO7DyiXxZ2pnKAJEp7oOeTANXeoG9F4CjXeOvNhcb7Ip/qvUpR4BlGybUrI4VkfPwK5J/jV8tWF5HWgEjN4Kh7rfhDz6ARMsaKHd5HEzaCbCwmgucnf0KzjauyD9KMDQNJQAAIABJREFUGFJMiMf5W4Mj+NMFP0d90Jmvrb3UA/z3LcCIpAu6X3qGjxDW/Mb3cAEMsDzcfE5dPoG7BVii0qTegt7MNBiWD4YtvmFSYNp+GFYAlu3Lh1u5/H+P/9u01TsmKN7cIt52VupHt0rYYPguFw+oOiK+FGL+fqiKAd2KYFSvR1KPlVouz6dARQRiviRmxc5gZuRc/p7lp3AB3RzfW9yn3XmO2Atksv+/8NFLP1LUIN5yKDaCv9g3vlG8WK11pYILmhRbQ8huRoOxtLQJpHOIKGksDV0obRyeTYEKCxh6CqO9n0LztyLevBqKMskvCBWugcM7X8BWVIxGF+By48O4VrcMhubH/GgX/nzh3yPk4FWopzuAdw4AHcPy9YgBlnw98VJFDLC81G3OVXqBewVYtxZvYzycsm1FbHGaD7PG/3v8H8sWfzW8c7NT8aPl+Ihr3O+TNesmPcSwQjBvecNW1owioGVQH7iU/9ZMU8Wm13Y+iNOtMC6OPoL2sTn3uxx/nAJVFagPjGBp/R7E+XbBG+7i0QexWqmQ8EmsbhKfyfZkFj8m017Noh6xObx4/DCtA8NjQHsfsP8ScLmsgZaCkNWERmN50fdyWB/DaDaAB8JXUK+NFD0OT6RApQVs20T/1V9CVROoa/saNF+40pfk+C4XsBUNA4kHsX/OdzC3vh3/bvHfOP4lKuKLk19sA9rL+ntN6TcCA6zSDTlC8QIMsIq345kUKLtAoQFW2S9cpQFNw8LoYAq2bSPRFIWm3blKbLJSzgw/gY6xuTBKebV8lebIy7hbIP9oQrgDS+v2waem3T3ZImY3EWKJfMoyxx+qDPgA9R4/1TM5IBQo4mISnCLedig2h7/cAxy8CugGkMoBQ2PFbcIr3kLYqj9e1MxsEbKlTTRqo1gUvJJ/CyY/FJBRwLJ0JAcOIJc6g0TrNxAINcpYJmtysEBy+io8+fAhTJsh4fKlKbqKPRv/eQdwQaIXKTLAmmITeXhZBRhglZWTg1GgNAHXB1imhRO7L+Lc7qNY/fW1mL1kWkFgtq1iMDcT3akFuJqaWdA5PIgC5RZoCfWjNXQZ0yJnoTIcmJRXBFgitCowmy53i2o+ngiwxBsOh1LA4Nh4uHVtEOhPAqd67l+ezw6jRV8N5foq2/ufcfOIXMaCzzSwLHwRETU1lVN5LAWqJmBZBlIj55EZOYi6tpfgDzK8qhq+hy4kVvEGYzaa5xiY82AW0YTl6NmnssBvdgFHJdnSiwGWo28nxxfPAMvxLeQE3CTg9gBrole7PjyCrpMXsey5h6H5by7NqG+Oo2laHdR7/O13JDcTp4ZXImsGYdsaDNs/6X5fbrovOJfaCYjHWYNaBvPjZzErKjZq54cCxQmIfbVy+niw1TcCXOi5uVm8WMklHr/M5oJoNh6GCLKm8skHh+kcloUvIaqOTeVUHkuBigmIxwQNfQx65uYrPm3LQmr4M8QaX0A4Pr9i1+bAFJgQ8IWApU9m0DxThz9Qnq00aqErviD5L58AnUOA2Eeylh8GWLXU57WV19/7xLk/k9k/CrhMYDzAetdls7pzOuJRwtP7zqPrfBfs66/4Ev9ODo6ibW4TVn99DQLBu28Ub9lis3oNuhXCqN6A/ux0dKbm8C2Nrr9zqjdBv2og4R9Gc6gdraGrCPmc/xhC9fTku5IMG8NPpiL21hLh07UhQIRY+y/5cOb0QwhYk+8hONkYYo+uXMpAi28IC4JXocLZKw3ku3tYUTECtm1hbPAgsqkLULXEjSEUJYpgdBZCsdnctL0YWJ5TtEBdm4m5K3Jom6vnxzB0wOcverianChCrK0ngA0ngcz4NGryeemZHyDgFy+U4ocC1RdggFV9c16RAncV8EqANQEg9sK68bGBs4fasfftzVj19WewbO3Cgu8Usal81qzHueFV6EpPL/g8HkiBLwpEfWnMiHRgduxA/s2C5XrxAaUpUIiA+CXxk12LcfBU4Y9KG7oFM2tiefgKEhqD1kKceUzlBbLpTgxfewOxxj9ApG7uFy54/xfBVL5CXsGLAuLRwvoZFpauTSNWV+NlTEU2QPw+seko8O6RIgcow2kMsMqAyCGKFmCAVTQdT6RA+QW8FmBNJnhi7yWc33sKK59fibkPzpgSsnikcCA7C1fHFqA/2wbT5iu5pwToooN9ioH64ADi/v78rALqvb+qDKg5RHwjSAS6XKRQ2lTEN71i83Wv7mdVml5xZ48mozh/tQnrdy4oaACxcjWXMdGijWBR8FJB5/AgClRWwEY23Y/R3k8QjC5GvGl1ZS/H0SlQhIAvCDTNNjBrcQ71bQZyGcDvH18R65SFRfvOAx8cAQZq8NQ4A6wibjqeUjYB5Q0+Qlg2TA5EgVIF6jzyCOG9nCzLxsFPDuL8vjN49JvPYNHDs6bMatl+DOWmo3NsCcaMKJJGBLbNb3ynDOnQE5qCg3igfgdCWhqaknPoLGpftni6V+VPm6o2wjA1dPU24TcfLrvvdcW38EbORNjMYHn4PDTFuO85PIAClRYw9TSGez6EotahrnUdVI2PGVXanOMXL+AL2qhrszDvoSwaWg2It7mqDvnuUzyCfrkX+M8bgVsfaCheo/AzX+YjhIVj8ciyCzDAKjspB6RA8QL1gVGsbnH/Hlj3E8plDOx4bQuG+0bwzKvPo3lG/f1OmfTHdSsOvzqa/zHxiGHGSOT3zspZofH/zwpBNwOwoMCwfBgzwrDhyx8jHku0bF/+3+ItiBOruSxbzb9lTfy7lI+qWBD/iOvyU7qAouQ7hZZQNx6s3wmfmil9UI+OMPEHYfGoBT/VFxgejePvXnvsvhcWewlaWQNLQpdRr43/OscPBWopYFk6Rnq25P8yXdf2Jagqf3+rZT947cIFxK3aMtfA/IeyCMct+PzO2SK6fwT4+y1Az8j4y0Cq8WGAVQ1lXuNuAsob73MTd94eFJBFQDxCyABrvBt61sC+j/ehv70XX/7pS4jEq/Mtrtgg3swHVypMy5//twirRNCUD66gwbJFuCWCLBF8RfL1itDLtIPX/7/A+ByuB2UT95dfzUBVTMT83RCPuNkQm9Eb+fMGs7OhW/58qDbxyVnj45T7Ix6Xm8qnUnVMpYbJjlVgIaxlkPAPIOrvR0BN5f87oNVgPX2pk5Ho/IkASzxCGHDYBrcSMZZUylufPoYzV+J3HUP0SE+biCOJB8MX82E4PxSopYDYtH342kcwjSTq2r4GX+Dmxu21rIvXpsBUBPwhG/FGC40zcpjzoAHNV6VEaCpFTnLs8Bjw9j7gQHuJAxV4+svruIl7gVQ8rAICDLAqgMohKVCsAAOs2+VSySy2/mYzxoZG8NX/8VuIJm6GO8Ua8zwKUIACsgtc7pyJ361ffNcyFdNENm1hUaATzYHxfd74oUCtBPJvHBw6gfTQdsRbv41QlC9TqVUveN3yCWgBYP4jOcxenIXmt5FLj48dCAOyrlB+Yzew4zwgHi+s5IcBViV1Ofb9BBhg3U+IP06BKgowwLoTe6BnFDte2454cz0e//qjUG/ZlCcQ9EHzlfYoXxXby0tRgAIUKFjgv77+FIZGJ1+FaecMGDkLj0bPwM993go25YHlERCPCorQauKTS/VgbHAnog1rEY5/8Y2D5bkmR6FArQRCcRvTFuponaujrtGEqQOapKuTdRPYcQZ4a39ltRhgVdaXo99bgAEW7xAKSCTAAGvyZiSHUtj0q8+QHbn9FfHTH1yIFc+uQH3T+GN8/FCAAhRwi8D6nStw6HTzpNPxpcYQU7NYEOKbB93Sb6fMIz1yFZnkMRi5K7eUrCBc9xRiDeLlA9w8zym9ZJ2FC4gVV2IVVtsiA/NXZBGOVniJU+Gl3XGk2AervQ/4h8+AkWwJA93jVAZYlXHlqIUJMMAqzIlHUaAqAgywJmfO7/eSM3DhWAfEa+PFxzItdJy8hIErnXj+Z99A66wGaZd0V+Xm4UUoQAFXCZy8MA0fbF8C07w9EAiZGWRTFuaEu9HkG3TVnDkZiQVsG+nR8xjt+xCh+Dpo/pt7tPmDDfCHxO/BXBEtcQdZWhkF4s0W5izLoaHNgD8oNn0v4+BlGEr8SfniNeD9w8D53jIM+IUhGGCV35QjFi6gvPH+RmfsTlf4nHgkBRwrMB5gvePY+qtdeGo0g+1v7YGeSuPFn34ZgbBkf4KoNgivRwEK3FPAMAFVBW55EllascGRBH770UMYTd3+61o0M4KkEcCyyAWE+bZNafvntsL0XD+GOt9EKPYoYo0roaj8/dZtPeZ8piagakAoZiFab2HaIh3T5uj5AfTrL0H2S7BtazINvL0f2Fvmxbovr3sFAX91Xq40ta7waC8IMMDyQpc5R8cIMMCaeqvEq+Q//fVWKKoP676/BqFIZd7cN/XKeAYFKCCbgHizoiYCLIcsFHl/60ocP994g9Fnm9DGUtA0Aw+EruTfasoPBSotYOhJDHWthz/YjLq25yp9OY5PAUcKiFVZCx/JItZgIhixpPl9JqsDv9kFnOoEMkZ5aBlglceRoxQnwACrODeeRYGKCDDAKo61v2sYm/7xQ7QsmIO133qcIVZxjDyLAnkBEfL4fe7EyOQAnzb+jxM+HT3N+NUHK26Waln5xwfnBroxI9DthCmwRocLWGYWIz1bYJpp1LU+D18g4fAZsXwKVFYgGLXzjxbOXKojmjARDNf+YSex+vjYFeCdg8BAqvT5M8Aq3ZAjFC/AAKt4O55JgbILMMAqnnSofwwf/r+vY9HTq7Dm5ZXFD8QzKeBRgZwB5HQgFnYvQCo7Hs75HRJgiU787uM1uNw1/qIKU7egZ8TbB88ipF5/p7t728WZSSAw0rsLufQ11E97Eb5ATIKKWAIFnCPgD9uY85COttlZROJ2zfdq7R4C/uMHwPXtZIuGZIBVNB1PLIMAA6wyIHIICpRLgAFWaZId565h1+tb8OAzD2Hp2qXQfA55Tqi0afNsCpRNYCwDRCXYt6NsE/rCQE57hFCUf+LCLHy4fWF+M3crYyBgZbEycrpSRByXAnkB27aRHNiD7NhZxJteRDDaRhkKUKBIAbFfVv10E03TDCRaTNQ1G9BqtNJ5eAz4/W7g1DXALPJligywirwReFpZBBhglYWRg1CgPAIMsEpzFG8ovHC8A3ve2ISVX1mN5c+IV3rzQwEKFCogvpV1wgbnhc7ni8eJBzluf6dfsSNV77zBkRhe+2QlBof9+QCrTR3C7GB79QrglTwpkB65iGT/x4g2vohIYiFqvnTEk13gpN0o4AvY8AdtNM8zsejhDHz+6j9iKPbFemcvsONCccIMsIpz41nlEWCAVR5HjkKBsgjUB0axuplvISwVc/+nJ3DlyHksXL0YdY03n4cKJ2JoaKuHP+Cg54dKxeD5FKBAXkC8jcmJj0fmdD/e/PQhXOpMIJcysCx4GXW+YXaVAmUQsGHoKRjZa7eNZdsmkgN7EQgvQF3rk2W4DoegAAXuJhBvNjFnWS6/X1a03q5KoDWx1+WOU8D7R4BUbmr9YYA1NS8eXV4B5c0PNlY/9i3vHDgaBVwjUOdngFWOZoo3E1672I29Hx3KPwYhPpauw9KzaJnTgqe+vw6BUI3WbpdjghyDAhUQEJu8ijf0KU5bolSghZifUzZv/+KUth1YjJ2HZkAf07EicglRNVngrHkYBe4mYCOdvILU4C7Y1u2/HyqKhkj9QwjFF0BR+Cg+7yEKVEPAF7AQb7Qwe4WOeIOFSKzyb5kVq67PXgM+PghcGCh8ll999hUE/MHCT+CRFCijAAOsMmJyKAqUKiAeIXyMK7BKZbzr+VfO9mDnbz/BnIcWYO2310J187NSFVPkwBRwpkAqA0Qcur9X72AjfvXmUoyMqVgTOw6fUvm/2Dizy6y6MAEb2XQvRro3wBeYiYYZzxd2Go+iAAWqIqAFgBkP6KhvE/tm6VBVQPNVZs2JCLHEiqxfbgeOdhQ2PQZYhTnxqMoIKG9+8GllfjZUpl6OSgFXC4wHWG+7eo61ntzF4504vPEAFq1+ACuefqDW5fD6FKBAlQTEGxYD/ipdrIyXsW0FYiHpP73xOHq6VTwSOQ2NAVYZhb02lI306BUk+7chGJmPROtTDtwZzms943y9KiAWQMYaLfhDNpqmG0i0mmhsNcrKkckhH5CJVcobjwOfnrj/8F999odcgXV/Jh5RIQEGWBWC5bAUKEaAAVYxalM/R4RYu9/YjFXfXIclj86Z+gA8gwIUcJyAU/fAmoA+cWoa3t84N/8GQk0p8tVRjusaCy63QDbVhZGej+ELzEPD9C+595nhcsNxPArUWkAZD5p8QRszlupY/HCmbBWJVVjm9cfsj14GfrcHGLvHvlgMsMpGz4GKEGCAVQQaT6FApQQYYFVK9vZxTdPC3vc/R/vJq3j8W89g3rIZ1bkwr0IBCtRUQPwhXWzx5aR9vixrfA+idEbDL361Agv9F6GCAVZNbyQHXlzsB5lNdSDZtw2B8GwkWp9x4CxYMgUoMCEgVmfVtZlom51DrMlGtN5CMDT+e4ORA3wBwDIBtYj3FnX0A7/fA1zun9ybARbvw1oKMMCqpT6vTYEvCDDAqt4tYVk29n+8H5eOnMcLP/sGGltj1bs4r0QBCtREIP9OB2U8xHLaRzc0bN04C2bXEBRw9wen9a/W9WaSVzDa9yn8oQVItD4JVQ3UuiRenwIUKJOAWJUVDNtomGGifpqJ6XPHl0/ZFlDsexiGU8Bnx4FNp+8skgFWmRrHYYoSYIBVFBtPokBlBBhgVcb1bqPqORM7Xt+Gwc4+PP/Tl1DfkqhuAbwaBShQVQGxAsup724Qe2Ed31OHzhM2A6yq3jVOv5iNXGYAI93r4QvMQKLtGagq38Lr9K6yfgrcS0CEVq0LDMx+IItA2EYoakPTxMsbAPHyQPEoYqGfHaeAD48CyezNMxhgFarH4yohwACrEqockwJFCjDAKhKuhNPGRjLY8eYu6GNJPPnD5xGru/maMp9P45sKS7DlqRSQTcC0AG0Kf3CXqn7xuvN9QVw6xleXS9UXCYuxrJubPOfSfUj2b4Y/OAvx5iegiteb8UMBCnhGIBizkWg0kWix0DxbRzRuQptChi3W+56/Bry5F+gYHmdjgOWZ20fKiTLAkrItLMqrAgywatP51GgGm365GSPdvbcVMGP5Yix6bBFmLmhx1J45tVHkVd0kcP1JOzdNKT+XrA4EHfgmQlG7ePzxzN4QrhxnAOGMG9OGaWah3nh+53pyemMDtjsfZFW++HDrXZ91vftDsIaRwtjAfmSTh/NMiqJCCyxF/fRnufLKGTcOq6RARQUijTbmr8yiZYYOzW/n/3xb6L6Qf78RONkNvLSObyGsaJM4+D0FGGDxBqGARAIMsGrXjPRYDpePX72tgIHOPrQfPYunXvkSZi+Z6cyNc2pHyis7WEC/voDDP4VvaR08XUeULgKsU7vDuHrSoQmcI5TLV2R69AIyo1egZ47kB1W15vFASRWrfFUoqg+KokFRx/spgqbbN6tRJg2cxo+7M8ASjwXatoX0yAVo/joEowvz4/r89fCFGhlela+1HIkCrhDwhYD6NgPRhIVYg4W6VjO/Outen5wBfHgICLYywHLFTeDQSTDAcmjjWLY7BRhgydVX07Dw+UeH0XuhA+t+9Bya2uJyFchqKFBBARGYFPqtbAXL4NDXBcRmvCc+D6PzNAMs2W+KzGgnkgObEIw9gmjdvHy5pjW+qbJl6vnldJalw7ZM2Ob4xjK2bYz/2I2PDdMYu2OqtpmGbd2yGc31I0zjAhS1EeHEo4jWL74RjMluxfooQIHaC4hc3Oe3EW200Twnh5kLdQSCk78sJJkGDo38EFmLj7PXvnPerIABljf7zllLKlAfGMVjTW9LWp03y9JzBna8tRuD14bx4k+fR6w+7E0IzpoCFKiZgCXejG4rOLo9jJ4LXBZXs0bc98I20qMXkezfhlD8UUQbHuTKp/ua8QAKUEBGARFmTV+YQ12ziWidhUDIyn+pJXL23YM/RNpkgCVj37xQk/LWh5v4LmYvdJpzdIRAnV8EWG85olYvFZkcTuPz9w/A1nN45gdPIRzjb9pe6r+X5yoeJeRjhLW/A8TqK8tWcOSzCPquMMCqfUcmryA9egWpwc8RiC5DtH4JVI2r5WTtFeuiAAUKExD7ZIXjNgJBC01zDIy0ZzGw/FVYPv5ZuDBBHlVuAQZY5RbleBQoQYABVgl4FT41m9Hx3n96A7G2aXjhx+vgD2gVviKHp0DtBXI6EODfwWveCCMntkdScGhTFAMd/LWn5g35YgG2jXTyCkZ730EotgqJlmf4/K10TWJBFKBAyQKmAaTGoH37VSDIAKtkTw5QlAADrKLYeBIFKiPAAKsyruUatftSL3b8y2ZMWzIXq7/6GAJBroQoly3HoQAF7i4g/s5g2wr2b4hhpOf62+wIJo1AJnkFyf4NCESWIta4BqrGN0VK0xwWQgEKlE+AAVb5LDlS0QIMsIqm44kUKL8AA6zym5Z7xOGBFN7/q3/Byhcfx0PPLi/38ByPAtIJiA1bY9z6reZ90XMK9nwQR2rozjfQ1bw4DxeQTQ9guOuXCMWfQKJlrYclOHUKUMD1AgywXN9iJ0yQAZYTusQaPSPAAMsZrb5w7Cr2v7cDDzzxICK37IcVqkugbW4LAiGuzHJGJ1llIQKpLBDhkwKFUFX0GD2r4PP34siMMsCqKPRdBrfMHHLpy7Ct9I0jxFsDU8P7EIw8iFjTWq68qkVjeE0KUKB6AgywqmfNK91VgAEWbw4KSCTAAEuiZtyjFMuy0XWhFyd3n0P3qTM3jtQCATTNaMJzP36BIZYzWskqCxAwTMDHbZcKkKrsIbmsgp1vxaGnGWBVVvrO0S1Lx2DHb2Aao4Bt3jhA9TUjnHgUkcRiKCq/uKh2X3g9ClCgygIMsKoMzstNJsAAi/cFBSQSYIAlUTOKKEU8Xrj5F+vRPKsFT3z7SW70XoQhT6EABSYXyKUVbPldgjxVFjD00Xx45Q/OQaLleai+UJUr4OUoQAEKSCLAAEuSRni7DAZY3u4/Zy+ZAAMsyRpSRDm9Vwex9XebMWPJAjz6leUIhvkKtyIYeQoFKPAFgbFhBTvfZIBVzRvDNDMY6d4ERQkg3vI0NB83g6umP69FAQpIJsAAS7KGeLMcBlje7DtnLbHA0y3vIagNSlwhS7ufwKWTXfj8tU1Yum4VHv7Sg1AUPvJzPzP+uNwCugFoGqDyVq5Zo0YHNXz+dqxm1/fahU0jjaHOT6D6A6if9iIUhc/Reu0e4HwpQIEvCDDA4i0hgQADLAmawBIoMCGQNkJoDHTiydb3ieJwgQvHOnF44348+PQKLH18vsNnw/IpQIFaCzDAql4HDD2J0d6tgKIi0fwsNH+kehfnlShAAQrIKsAAS9bOeKou5a0PN9uemjEnSwGJBZJ6FAeGZuPfLPxHTI/c3Bxc4pJZ2l0EbBs4tvUojm0+hDU/eAELV8ygFQUoQIGiBfq6/Dj4MYOUogELPHF8w/aP848L1k17niuvCnTjYRSggAcEbguwuB+gBzou5RSVtz5igCVlZ1iUJwVEgLWpZwmebDqJV+f+nScN3DRpPWdi/0d70XG6HU+/+jymzW120/Q4FwpQoIoC3e1+HNnIAKuS5EZuFCO9W6CqGuItX+KeV5XE5tgUoIDzBCYCrO+8CgQZYDmvge6omAGWO/rIWbhEYCLAimo6fjr3AzxQv9klM/PuNEzDwv71B9F5+hJe+NnXEa/nJsDevRs4cwoUL9BxPoATW/nrR/GC9z5TrLwa6toAVQsj0fI0VC1YqUtxXApQgALOFGCA5cy+uaxqBlguayin42yBiQArpJoIqDr+YvF/Q2v4nLMnxeqRSevY+eZO9Ld3IxCrv03EH/Jj4ap5WPTwXGg+lVoUoAAFJhU4fyyMC3sD1ClRwNRHkU11ITV88raRbKsXmq8RddNehuaLlngVnk4BClDAhQIMsFzYVOdNiQGW83rGil0scGuApSkWVjecwB/M+hV8as7Fs/bG1EaHUhjoHkFq4PY3TBo5E+f2n0XTjEasenkN4g1cYeGNO4KzpMDUBBhgTc1rsqMtM4uhrjeh+loQCN/+SLfqa4U/WA/Nx8c0S5fmCBSggCsFGGC5sq1Om5TyNvfAclrPWK+LBUSA9WnPEogVWCLAEp+fzPsAS+r4KKGL246hvjF89NdvItLYgK/89AVEE2FAcfOMOTcKUGCqAsd3R9B5wj/V03j8dQERXvVd/jsEwktQ1/YVKKqPNhSgAAUoMBWBWwIshXtgTUWOx5ZRgAFWGTE5FAVKFZgswGoLJvGT+f+A+uDVUofn+RILjI1msee9XRi8NoLlTy/F4tWLoGp8pFDilrE0ClRV4Mi2KLrPMXQpBt3URzDc/T5UrRHxlue4OXsxiDyHAhSgAAMs3gMSCDDAkqAJLIECEwKTBVjix5YmLuHVOb9AQBsllosFDN3EsZ3ncOqzPVjy7KNY9fxyF8+WU6MABaYisP/TGAauaFM5hccCEJuzD7T/App/BuqnvcSVV7wrKEABChQrwACrWDmeV0YBBlhlxORQFChV4G4BVkAx8Z1Z7+Lhxh2lXoLnO0Dg4tF27H9/B5rmz8Xql1ci3sANhR3QNpZIgYoK7Fkfx3AnV2VOBdnQhzF87a38yqtEywvQ/Py1dCp+PJYCFKDAbQIMsHhDSCDAAEuCJrAECkwI3C3AEj8e92Xwbxf/A+oClwjmcgHbstF9uQeHNp9ALjmCtd97Dq2zbn97ocsJOD0K5AXSOSDMF+/lLTb9Mg7TYIBV6E8NsfJqsPP3UNVmJFqf5ebshcLxOApQgAJ3E2CAxXtDAgHl7Y8+syWogyVQgAIAxgOsB27bxP1WmPrAEP5yyf8Nv5qllwcExCOFn7+3B5cPncHj3/0SFj08B6rK3d3Tzn5WAAAgAElEQVQ90HpXTTGTA0KThFCDSaA+Btj2+DsLlFtubcsGMlkgEnIVRdGTEUYb/6mu6PO9dqJpjGGg/Z/gC85GXetLUH28kbx2D3C+FKBABQRuBFg/Ajdxr4AvhyxIgAFWQUw8iALVEbhfgKUpNl5s24Fn2t6BAmbP1elKba+Szeg4u+cUTmw7jkVrV6C+rfGOgnx+Dc2z6hGJBmtbLK9OgSkIiFBG/CpmmoCqjv8zkWHpBuDnfuU3NPWcgs9+nZiCrjcONY0MjNwwxBsGb3xsA+mR3VDURH7Ddp8/5g0MzpICFKBApQUYYFVamOMXIMAAqwAkHkKBagncL8ASdYjg6t8ufB0zY7urVRavI4FA58U+XDjWgSv7Dk1SjQJFUbD2Ry9j/tJWCaplCRQoXEAEWboJBHzAUHJ81ZX4b35uCqSSGna8xiDm1ntCz41isOMX40v4bvkoih+B6Bokmh+GonLTe/48ogAFKFA2AQZYZaPkQMULKG9/zEcIi+fjmRQor0A+wOq++yOEE1ebFRrBnyz4W8T8veUtgKNJLSAeKcxmjDtqFP+/WKV1dvcJLF23Cg+tWwqxKosfClDAHQLJYQ273mKANdFNPTuIkZ6PoaoRxJqfh6r5b42woGoBKAr3C3PH3c9ZUIAC0ggYBpAag/ZdPkIoTU88WAgDLA82nVOWV6DQAEvMYE3jMXxj5u/gUzPyToiVVU3AMi20n+nEoU8OoW56K574+iMIR7n7ddUawAtRoIICfV1+HFwfqeAVnDO0nh3B8LU34AtMQ6L1hXxYxQ8FKEABClRBgAFWFZB5ifsJMMC6nxB/nAJVFJhKgBVSDXxn1gY81LCpihXyUrILdJzvxb73d8Ln92HNt59Cy8wG2UtmfRSgwH0Eeq4GcHhj2PNOenYAI93vQ9XiSLS+DM3PUM/zNwUBKECB6gkwwKqeNa90VwEGWLw5KCCRwFQCLFF2wpfFn8z7LWZEj0k0C5ZSa4HRwTQOrt+D3qv9WP7sI1i0ai4fKax1U3h9ChQpYOrAtfYgTmz19pv09OwoRrrfheZvym/OrvkY6BV5S/E0ClCAAsUJMMAqzo1nlVVAeYd7YJUVlINRoBQBEWBtLGAPrFuv0Rbqx88W/Bwxf3cpl+a5LhMwDQtHdpzDyc2fY/lzq/DQs8uhatwTxmVt5nQ8InDxeAjn9nr3LaN6dhhDnb/NPzZYN+1rUDXvWnjkluc0KUABGQWuB1g+7oElY3c8UxMDLM+0mhN1gkAxAZaY12P15/C9uX/nhCmyxioLnNp7ESc+24/meTPw8PMrUdfMjaCr3AJejgIlCYiXPl057d0AS4RXoz0fQRGPDbY8z8cGS7qbeDIFKECBEgQYYJWAx1PLJcAAq1ySHIcCZRAoNsDSFAtrG87g67P/oQxVcAg3Cdi2jcGeUXz0128i1tKCp77/DFpm1rlpipwLBVwtYNvAmf1hXDnmvc3KxWODQ52/gS84C3VtL3LDdlff6ZwcBSggvQADLOlb5IUClXc+3mJ7YaKcIwWcIDAeYC1GSDWhKVP7qelXDfzJvH/BgvhBKLCcMF3WWEWBdCqHA+sPofP0ZbQsnH3HlX0+FfXNccxbOQ+xOu4tU8XW8FIUuKeAoY8HWB2n3BtgGblhZJLnYWSHb7MwjQGoqoZE60tcecWfJxSgAAVqLXAjwPojKEE+yl3rdnj1+gywvNp5zltKgVICLDGhtuAw/ofF/w9CWkrK+bGo2grkMjpGB8fQdeHO/dIMw8LZnYcRbajH2u88icZpXKVV227x6hS4KXBkcwTdl/2uJNEzgxjpfg+qrwH+yLzb5ugLNCAQbIHq41+UXNl8TooCFHCWAAMsZ/XLpdUywHJpYzktZwqUGmCJWS+KDuDHC/4KAZUhljPvgtpVncsa+Oy3OzA2lMTj33gM0+e3QvNx4/fadYRXpgBgWcDhzVH0tftcx6FnRXj1PhQlgMS0b8Lnj7pujpwQBShAAdcIMMByTSudPBEGWE7uHmt3nUA5AiyB8mzLAbww7Q341IzrjDihygqkklmc2n0Wp7cfxIPPPoqVzy2DqiqVvShHpwAF7irg1gBLzwxhpPdjqGoU8dYvM7zizwEKUIACsgswwJK9Q56ojwGWJ9rMSTpFoFwBlpjvd2duxurm950yddYpmUDXxT5s+sf3kZgxBy//2bMIBN23+kMycpZDgUkFDF3B4c0RDHS65+egeLPgUOfvofnqUTf9W9B8IXafAhSgAAVkF2CAJXuHPFGf8s56buLuiU5zko4QyAdY14rbxP2LE4xqOv543j9jTuyEI+bOIuUSEG8+6zzfgwPr9yMYDmDlC49g2twmuYpkNRTwgIDbAiwjl8RI9wdQ1ADiLS/CF4h5oIucIgUoQAEXCEwEWN/jJu4u6KZjp8AAy7GtY+FuFChngCV86v0p/HDObzGXIZYbb5eKz0mEWJmxLPZ8uA8959ux/IUnsGzN/IpflxegAAXGBfQsoKjuWYElwquhzn+B5m9Cou0laD6+8ZT3OgUoQAHHCDDAckyr3FwoAyw3d5dzc5xAuQMsAbAg2oM/mf+3CGgjjvNgwXII6DkT+z7Yjc7z3Vj0+FIse/IB+AOaHMWxCgq4XMAtK7CM3AhGuj8CoCDR9nWuvHL5fcvpUYACLhRggOXCpjpvSgywnNczVuxigUoEWPkQK3YVfzj3V4j4el2sx6lVUsCybFw9ew37P9qHRGMYS9etmvRyiYYI4vVcVVHJXnBsbwk4McDKpm7/vcYyc0gNbYWqxZFofYErr7x1C3O2FKCAWwQYYLmlk46eBwMsR7ePxbtNoFIBlnD6cus2fHnau1AUy21snE8VBXo7h3F48wmkBoeQGRm648qhhhYsXDUfS1fPh+ZTq1gZL0UB9wnkMoAvABzeHEVfu/ybuBu5UYz2H4SREXsv3v720kBkJWKND0PzR9zXKM6IAhSggBcEGGB5ocvSz5EBlvQtYoFeEqhkgBXRdHyl7TM80fKxl0g51woI2LaNwZ7kpCO3Hz+PS8c70NCawBPfWotg2F+BCjgkBbwhYBpiDyxnBFh6dgSjfZ9BVesRqV8ORb09cPMH67zRNM6SAhSggFsFGGC5tbOOmpfy7vqttqMqZrEUcLFAUo/gkzK9hXAyJlWx8dO572FR3RYXK3JqtRQQG7/3XB3Ett9sRCAcxLo//DIaWviWsVr2hNd2toBlAUckX4Gl50Yx1PUGNP98JFpWw+ePOhud1VOAAhSgwJ0ChgE7NQZ//i2EIQpRoCYCDLBqws6LUmBygUoHWOKq9f4x/Gjua2gNdUBVMvCpaShgjs17srwCI4MpfP7GVqRTBlZ/fQ2mzWvmI4XlJeZoHhAwdMDnFwFWBD2X5VzNKN4sONK7GYqaQKxxFfzBhAc6wylSgAIU8KAAAywPNl2+KTPAkq8nrMjDAtUIsMZDrFH864W/RiJwGZqiAwywPHzXVW7q6WQGR7efxsV9J/HA2gfx8PMroWq374tTuatzZAq4R0DWAEvPDmP42jvQAnMRb+bKK/fccZwJBShAgUkEGGDxtpBAgAGWBE1gCRSYEKhWgCWuF9ay+POFv0Bb+AwDLN6CFRW4cLwLB97dgtYlC/D4yw8jHA1W9HocnAJuE5AxwDJyIxju+RSK2oh4E1deue2e43woQAEK3CHAAIs3hQQCDLAkaAJLoEAtAiyxDmZBtBvfnvU2mkIixOKHApUREPtiXbvYnd8Xq37WdKx68VG0zKyvzMU4KgVcKHByVxgdpwPSzEysvBrp/RSq1ox402PwBbjnlTTNYSEUoAAFKiXAAKtSshx3CgIMsKaAxUMpUGmBaq7AmpjLtMAY/qel/wc0xaj09Di+xwUyaR3bXv8cvWcv4Ikfvoj5y6aDDxR6/Kbg9O8roKgKTu8Nof2YHAGWoScxdO0dqL7ZSDSL8IovabhvE3kABShAATcIMMByQxcdPwfl3Q18C6Hju8gJuEYgH2B1LUZINaEp1dtYfUn8Ir4/558R9Y24xpITkVMgm9FxcudJnNl1AjOXL4SqWHIWyqooIInAmm8+jmPbenFuT5cUFZlGBlB8iDc+zg3bpegIi6AABShQJYGJAOv7fAthlcR5mUkEGGDxtqCARAK1CrDEKpgViXb8aP5/kkiDpbhVwLJs9HcNouvSAMRG7/xQgAJ3F3jkS0txZk8GZ3Z1S8GkBRKIxGdD1biXnRQNYREUoAAFqiXAAKta0rzOPQQYYPH2oIBEArUKsCYIHq67gG/O+iUiXIkl0V3BUihAAa8LXDoewrm9DIy8fh9w/hSgAAVqKsAAq6b8vPi4gPLuhm3Ve06J6hSgwD0FxgOsRVV/hHCiKPHY4sq6c/jB3L9jpyhAAQpQQBKBq2eDOLUjLEk1LIMCFKAABTwpkA+wkvB//8dQgiFPEnDStRdggFX7HrACCtwQqHWANVHI8vg1fG/u3yCkpdgdClCAAhSosUDnhSBObGWAVeM28PIUoAAFvC3AAMvb/Zdk9gywJGkEy6CAEJAlwBK1iI3dfzj35wyxeGtSgAIUqLEAA6waN4CXpwAFKEABgAEW7wIJBBhgSdAElkCBCQGZAixR0/RgEn+x9N+zQRSgAAUoUEMBBlg1xOelKUABClBgXIABFu8ECQQYYEnQBJZAAVkDLFHXwmgXvjnzbbSGz7FRFKAABShQAwEGWDVA5yUpQAEKUOB2AQZYvCMkEFDe4ybuErSBJVBgXGC0xpu4T9YHBTbmhAfxytzX0BA8w1ZRgAIUoECVBRhgVRmcl6MABShAgTsFrgdYAW7izrujhgIMsGqIz0tT4IsC4hHCDTV8C+G9OjI7NIjvznkNbeHTbBwFKEABClRRgAFWFbF5KQpQgAIUmFyAARbvDAkEGGBJ0ASWQIEJAZkDLLESqy00iD+a+xqaQlyJxbuWAhSgQLUEGGBVS5rXoQAFKECBuwowwOLNIYEAAywJmsASKOCEAOvWLv2bhb/B7NhBKLDYPApQgAIUqLAAA6wKA3N4ClCAAhS4vwADrPsb8YiKCyjvfbLNrvhVeAEKUKAggfwKrM5FCGkmNEXen5pxXxZfbtmCNS3rC5oXD6IABShAgeIFGGAVb8czKUABClCgTAITAdYPfgwlGCrToByGAlMTUN77ZLu8f0ue2lx4NAUcL5DUw44IsAS0plh4sWU31k17HSljJiK+Dsf7cwIUoAAFZBRggCVjV1gTBShAAY8J3Aiw/pgBlsdaL9N0GWDJ1A3W4nkBJwVYolk+xcIzTQewru1jBNQkVMUAwEzc8zcyAShAgbIKXDoewrm9/La7rKgcjAIUoAAFpibAAGtqXjy6IgIMsCrCykEpUJyA0wKsiRBrZvgafjz314j6uxlgFdd6nkUBClDgrgIMsHhzUIACFKBAzQUYYNW8BSwAYIDFu4ACEgk4McCa4JsX6cN3Zv0KLaF2iURZCgUoQAHnC1w4GsKF/VyB5fxOcgYUoAAFHCzAAMvBzXNP6Qyw3NNLzsQFAk4OsAR/gz+Nr7R9ghX1u+FTMy7oCKdAAQpQoPYCp/eE0H6CAVbtO8EKKEABCnhYgAGWh5svz9QZYMnTC1ZCATg9wJpo4bdnfIbHmz+AAotdpQAFKECBEgUYYJUIyNMpQAEKUKB0AQZYpRtyhJIFGGCVTMgBKFA+AbcEWEJkTcMZPNf2FuoDPeUD4kgUoAAFPChwYmcYnWeCHpw5p0wBClCAAtIIMMCSphVeLkR5/5PtfGWYl+8Azl0qgVE9jA2dixDSTPgUZ//UVABMDw3gh7PfQ3P4iFTOLIYCFKCAkwSObA6j5zIDLCf1jLVSgAIUcJ3A9QAr+IM/hhLkY+2u669DJsQAyyGNYpneEBArsNZ3LkJYM6E5PMC6tWOvzPoQy+u3wqfq3mgkZ0kBClCgTAK2DRz9LIqey/4yjchhKEABClCAAkUIMMAqAo2nlFuAAVa5RTkeBUoQcGuAFVBNrEicwkvTNyDmv1qCEE+lAAUo4C0BywSObI6i7yoDLG91nrOlAAUoIJkAAyzJGuLNchhgebPvnLWkAm4NsCa4GwNJvDL795gVOQ1FMSXtAsuiAAUoII+AZV0PsNoZYMnTFVZCAQpQwIMCDLA82HT5pqy8v3GHszfakc+UFVGgaIF8gNWx0HWPEN4K0uDL4I/nvYa2yKGinXgiBShAAa8ImMZ4gNXfwQDLKz3nPClAAQpIKTARYL3yJ9wDS8oGeaMoBlje6DNn6RABtwdYDyWu4Bszf4uorw+KYjmkKyyTAhSgQO0EDB04vCmKwS4GWLXrAq9MAQpQgAJggMWbQAIBBlgSNIElUGBCwI0BVkTTsSxxCk8270Zb+CSbTQEKUIACUxAwdAWHN0cx2Ombwlk8lAIUoAAFKFBmAQZYZQblcMUIMMAqRo3nUKBCAm4KsDTFwtrG41jdtAGNwT5oSq5CahyWAhSggHsF9KyCw5tiGOrW3DtJzowCFKAABeQXYIAlf488UCEDLA80mVN0joAbAqwGfxKP1J3B6qbPURc87xx8VkoBClBAQoHMmIpDn8aQHFAlrI4lUYACFKCAZwQYYHmm1TJPlAGWzN1hbZ4TcHKA1RxI4uH6k1hZvwsNwU6oiu65/nHCFKAABcotMDas4uAnMWSSDLDKbcvxKEABClBgCgIMsKaAxUMrJcAAq1KyHJcCRQg4LcBSYUNTTXy5+TgebdqIqL+ziFnzFApQgAIUuJvAcK+GAxtiMHWFSBSgAAUoQIHaCTDAqp09r3xDgAEWbwYKSCTglADLr1hoC45gVcMBLIyfQXPorESKLIUCFKCAewT62jUc2hgDFAZY7ukqZ0IBClDAgQIMsBzYNPeVzADLfT3ljBws4IQAqy2QwtqmA1jesBlh3wgUWA4WZ+kUoAAF5Ba4esaPUzujchfJ6ihAAQpQwP0CDLDc32MHzJABlgOaxBK9I5DUI1jfsQBhzYSm2FJNfHpoCI/UiUcFtyPs65GqNhZDAQpQwK0Cl44FcG5fxK3T47woQAEKUMApAjcCrJ9ACQadUjXrdJmA8sHGnXL9LdllwJwOBaYiMKqHpQuwEr4Mnmw6gocatqDO3wtFMacyJR5LAQpQgAIlCBzdFkH3+UAJI/BUClCAAhSgQBkErgdYoVdEgBUqw4AcggJTF2CANXUznkGBigmIRwg/lmQFVtyXwhMNp/MrrhKBSxWbMwemAAUoQIHJBWwb2Lc+juFrGokoQAEKUIACtRVggFVbf149L6B88ClXYPFeoIAsAslc7QMssTn7g4kzeKRhN5qCl7niSpabg3VQgAKeErBMwNAVfP5uArkUN3D3VPM5WQpQgAIyCkwEWD/kCiwZ2+OVmhhgeaXTnKcjBGodYC2Ld+C7s/8ZYV+fI7xYJAUoQAE3Cwx0+3HgI27g7uYec24UoAAFHCPAAMsxrXJzoQyw3Nxdzs1xArUIsCKajhV1J7CmcS+mRU46zowFU4ACFHCjgGkqOLErgu5zfjdOj3OiAAUoQAGnCTDAclrHXFkvAyxXtpWTcqpANQMsVbGxtuEEnmj5EA2BfqiK7lQ21k0BClDAdQK5rIp9H8aQGlZdNzdOiAIUoAAFHCjAAMuBTXNfyQyw3NdTzsjBAtUIsKJaFvOj7fja9A2oC553sBZLpwAFKOBege5LfhzfHoFlcP8r93aZM6MABSjgIAEGWA5qlntLZYDl3t5yZg4UqGSAFVRNPFp/Bg83bMG0cDt8asaBQiyZAhSggDcEjm6NovsCHx/0Rrc5SwpQgAIOEGCA5YAmub9EBlju7zFn6CCBSgRYQVXH7HAf/mDmu2gKnXGQBkulAAUo4E2BzJiK7a8lvDl5zpoCFKAABeQUYIAlZ188VhUDLI81nNOVW6CcAZbYnP2B2GWsbtqBebEjck+c1VGAAhSgQF5Azyk4uSuCnotcfcVbggIUoAAFJBJggCVRM7xbCgMs7/aeM5dQoFwB1oOxbnx1xu9QH+yEphgSzpQlUYACFKDAFwVsGxB7Xx3bEiUOBShAAQpQQC4BBlhy9cOj1SgffLrL9ujcOW0KSCeQzIXwcccChDUTmjK1n5pRTcfC2EU8Wn8Mi+p2SDc3FkQBClCAAvcWyGUUiL2vBjt9pKIABShAAQrIJXAjwPoplGBIrtpYjWcEGGB5ptWcqBMEigmw/IqF5YmrWNf2BhoCAwioKSdMlTVSgAIUoMB1AcsEFAW4cjqM8/uCEP+bHwpQgAIUoIBUAgywpGqHV4thgOXVznPeUgpMJcAKazrmRTrwdPMezIvvlnI+LIoCFKAABe4tYFuAogJjwxp2vRUnFwUoQAEKUEBOAQZYcvbFY1UpH2ziI4Qe6zmnK7FAPsC6eu9HCMOqgaXxDjzW9ClmRc7Bp2YlnhFLowAFKECBewmI1VaWqeDY9ij62vnoIO8WClCAAhSQVEAEWGNJhF7lI4SSdsgTZSkfMsDyRKM5SWcIiADro7sEWKpiY0GkD19p24RZsb0AprZHljMEWCUFKEAB7wlcPBrC+QPcT8R7neeMKUABCjhI4HqAFWaA5aCmua9UBlju6yln5GCByQKsiKZjbuQaHm/cg/nxY/CrIw6eIUunAAUoQIEJAcsCOs8FcGpXhCgUoAAFKEABuQUYYMndH49UxwDLI43mNJ0hcGuA5VNsLI724vm2DWgLn0JASyNttCLs63bGZFglBShAAQrcU+DaJT9O7YzA0BVKUYACFKAABeQWYIAld388Uh0DLI80mtN0hoAIsD7pmIf50V6sa96PZfXb4VPHnFE8q6QABShAgYIF0mMqjm6JYqRXK/gcHkgBClCAAhSomQADrJrR88I3BRhg8W6ggEQCIsDSjD6sbdmAmL9XospYCgUoQAEKlEvANBTs/SiG5ADDq3KZchwKUIACFKiwAAOsCgNz+EIElA83fc6doAuR4jEUqIJAXBvGbP9+NITOVOFqvAQFKEABClRbQDwueHpvBF1nA9W+NK9HAQpQgAIUKF7A0PNvIQy/+qdQgnzxSPGQPLMUAQZYpejxXAqUWUAEWCvjvy3zqByOAhSgAAVkEBArr07vDePa+SAsU4aKWAMFKEABClCgQAEGWAVC8bBKCjDAqqQux6bAFAUYYE0RjIdTgAIUcIiAaSo4dyCE9hP81tohLWOZFKAABShwqwADLN4PEggwwJKgCSyBAhMCDLB4L1CAAhRwkYANGAbg8wNdF4M4vTsMI8s3Drqow5wKBShAAe8IMMDyTq8lnikDLImbw9K8J8AAy3s954wpQAF3C9g2MNTrx+FPozByDK/c3W3OjgIUoICLBRhgubi5zpkaAyzn9IqVekCAAZYHmswpUoACnhEQ4VV/ZwCHN0VhW56ZNidKAQpQgAJuFGCA5cauOm5ODLAc1zIW7GYBBlhu7i7nRgEKeE2gvyuAE9vDyKZUr02d86UABShAAbcJMMByW0cdOR/lw82f246snEVTwIUC+QArxrcQurC1nBIFKOAhAbHyarDbjwPrYx6aNadKAQpQgAKuFrg1wArxhSSu7rXEk2OAJXFzWJr3BBhgea/nnDEFKOA+gd52Dac+j3HllftayxlRgAIU8K4AAyzv9l6imSsfcQWWRO1gKV4XEAHWQ1yB5fXbgPOnAAUcLDBwTcXhTxMwDW7Y7uA2snQKUIACFPiiwPUAK/Lqn0LhCizeHzUSYIBVI3helgKTCTDA4n1BAQpQwLkCPe0+nNge49sGndtCVk4BClCAAncTYIDFe0MCAeWjzbu5B5YEjWAJFBAC4wHWb4hBAQpQgAIOE8imVex+N4ZcRnNY5SyXAhSgAAUoUIDAjQDrz7gCqwAuHlIZAQZYlXHlqBQoSoABVlFsPIkCFKBATQXGhjTseisGqHzbYE0bwYtTgAIUoEDlBBhgVc6WIxcswACrYCoeSIHKCzDAqrwxr0ABClCgnAJjIxqOfhZFcpArr8rpyrEoQAEKUEAyAQZYkjXEm+UwwPJm3zlrSQUYYEnaGJZFAQpQYBKBXEbFng/jyIxy5RVvEApQgAIUcLkAAyyXN9gZ02OA5Yw+sUqPCDDA8kijOU0KUMDxAskhDcd3RDHax5VXjm8mJ0ABClCAAvcXYIB1fyMeUXEBBlgVJ+YFKFC4AAOswq14JAUoQIFaCeSyKg5siI0/NshX4dSqDbwuBShAAQpUU4ABVjW1ea27CDDA4q1BAYkEGGBJ1AyWQgEKUGASAbHy6siWGFJDfGyQNwgFKEABCnhIgAGWh5ot71QZYMnbG1bmQQEGWB5sOqdMAQo4RiAzpubDq5FePjbomKaxUApQgAIUKI8AA6zyOHKUkgSUjz7bzcXvJRHyZAqUTyAfYEV/U74BORIFKEABCpRFIJ1Usf+TODIjXHlVFlAOQgEKUIACzhKYCLB+9GdQQiFn1c5qXSPAAMs1reRE3CDAAMsNXeQcKEABtwmIxwZP7Ixy5ZXbGsv5UIACFKBA4QIMsAq34pEVE2CAVTFaDkyBqQswwJq6Gc+gAAUoUEkBsWH73o/iSA9z5VUlnTk2BShAAQpILsAAS/IGeaM8Blje6DNn6RCBuDaCh6K/dki1LJMCFKCAuwXEWwaP7Ygi2c89r9zdac6OAhSgAAXuK3AjwPoZlFDwvofzAApUQkD5+LM93AOrErIckwJFCMTye2AxwCqCjqdQgAIUKKuAWHl1cGMMoyK84p+UymrLwShAAQpQwIEC1wOs6I9EgMU9sBzYQVeUzADLFW3kJNwiwADLLZ3kPChAAScLjI1o+fAqM8rHBp3cR9ZOAQpQgAJlFGCAVUZMDlWsAAOsYuV4HgUqIMAAqwKoHJICFKDAFARSIxqObeeG7VMg46EUoAAFKOAFAQZYXuiy9HNkgCV9i1iglwQYYHmp25wrBSggm0A2pWLvx3GuvJKtMayHAhSgAAVqL8AAq/Y9YAVggF94W70AACAASURBVMWbgAISCTDAkqgZLIUCFPCUQHJIw/EdUYz2ccN2TzWek6UABShAgcIEGGAV5sSjKirAAKuivBycAlMTYIA1NS8eTQEKUKAcAmLD9v3r4xgb5J5X5fDkGBSgAAUo4EIBBlgubKrzpsQAy3k9Y8UuFmCA5eLmcmoUoIBUArYFKCogVl4d3RpjeCVVd1gMBShAAQpIJ8AAS7qWeLEgBlhe7DrnLK0AAyxpW8PCKEABlwmIACubUXF4c4yPDbqst5wOBShAAQpUQIABVgVQOeRUBZSPt+yxp3oSj6cABSojkA+wIr+uzOAclQIUoAAFbgikkyqO74xhqIt7XvG2oAAFKEABCtxXYCLA+qOfQQmG7ns4D6BAJQSUj7fsZYBVCVmOSYEiBMYDrF8VcSZPoQAFKECBQgVSoxpO74mg/6qv0FN4HAUoQAEKUMDbAjcCrH/FAMvbd0JNZ88Aq6b8vDgFbhdggMU7ggIUoEBlBcSG7Ue2cOVVZZU5OgUoQAEKuE6AAZbrWurECTHAcmLXWLNrBRhguba1nBgFKCCBwNjI+MqrgQ6uvJKgHSyBAhSgAAWcJMAAy0ndcm2tDLBc21pOzIkCDLCc2DXWTAEKOEFArLw6ti2KwU4fbG6e4ISWsUYKUIACFJBJgAGWTN3wbC0MsDzbek5cRgEGWDJ2hTVRgAJOF0iNaDjxeZQbtju9kayfAhSgAAVqJ8AAq3b2vPINAWU9N3Hn7UABaQREgLWCm7hL0w8WQgEKOF8gPabi5OdRDHDDduc3kzOgAAUoQIHaCdwSYKl8C2Ht+uDxKzPA8vgNwOnLJcAAS65+sBoKUMDZApmUimPbuWG7s7vI6ilAAQpQQAoBBlhStMHrRTDA8vodwPlLJcAAS6p2sBgKUMDBAvkN2/dGuPLKwT1k6RSgAAUoIJEAAyyJmuHdUhhgebf3nLmEAgywJGwKS6IABRwnIDZsP7o1hsEuDeCG7Y7rHwumAAUoQAEJBRhgSdgU75XEAMt7PeeMJRZggCVxc1gaBSjgCIGxYQ2n9kTybxvkhwIUoAAFKECBMgkwwCoTJIcpRYABVil6PJcCZRZggFVmUA5HAQp4SiCbVnF8RzQfXtlceeWp3nOyFKAABShQYQEGWBUG5vCFCCjrt+zjH/EKkeIxFKiCwHiA9csqXImXoAAFKOAugUxKw5WTYVw5FnDXxDgbClCAAhSggAwCDLBk6ILna2CA5flbgAAyCTDAkqkbrIUCFHCKgAivLh4Jo+M0wyun9Ix1UoACFKCAwwQYYDmsYe4sV1m/lSuw3NlazsqJAjGVK7Cc2DfWTAEK1E4gl1Fx6XiEK69q1wJemQIUoAAFvCBwa4AVCnlhxpyjhAIMsCRsCkvyrgADLO/2njOnAAUKF7AsQFUBPafi/KEIrp7kyqvC9XgkBShAAQpQoAgBBlhFoPGUcgswwCq3KMejQAkCDLBKwOOpFKCAJwTE5uyWAWh+4PTeWD684obtnmg9J0kBClCAArUUYIBVS31e+7oAAyzeChSQSIABlkTNYCkUoIC0AnpOwYXDUbSf4MoraZvEwihAAQpQwF0CDLDc1U+HzoYBlkMbx7LdKcAAy5195awoQIHSBUxjfAxFUXBmfxQdp7jyqnRVjkABClCAAhQoUIABVoFQPKySAgywKqnLsSkwRQEGWFME4+EUoIAnBMSeV5kxIBRRcO5QlBu2e6LrnCQFKEABCkglwABLqnZ4tRgGWF7tPOctpQADLCnbwqIoQIEaChg6IFZf+fwKLh4N49IRvvmohu3gpSlAAQpQwKsCDLC82nmp5q1s2LrPlqoiFkMBDwuIAGt55JceFuDUKUABCtwuIMIr8cbBS8cjuHAwxA3beYNQgAIUoAAFaiFwPcCK/dG/ghril0m1aAGvCTDA4l1AAYkEGGBJ1AyWQgEK1FxAhFfiDYNXTo6HV/xQgAIUoAAFKFAjAQZYNYLnZW8VUDZs3c8VWLwnKCCJQEwd4gosSXrBMihAgdoKmDqgakDnuRBO745A7IPFDwUoQAEKUIACNRK4LcAK16gIXtbrAgywvH4HcP5SCTDAkqodLIYCFKihgFh51Xc1gMObYjWsgpemAAUoQAEKUCAvwACLN4IEAgywJGgCS6DAhAADLN4LFKCA1wXyK698QNfFEE5si3idg/OnAAUoQAEKyCHAAEuOPni8CmXDNj5C6PF7gNOXSCAfYIW5ibtELWEpFKBAFQUsA4ACDPYEcHRLFEZOqeLVeSkKUIACFKAABe4qIAKsZBKxH4tN3PkIIe+U2ggwwKqNO69KgUkFGGDxxqAABbwsYOhA79UgTu+JwMgyvPLyvcC5U4ACFKCAZAIMsCRriDfLYYDlzb5z1pIKMMCStDEsiwIUqKhANg0EgkBvRxAndjK8qig2B6cABSjw/7d3Z9tVXOkdwL86kpCEJNv9Arnom9jJK+Qmz5Fud7JWVqfTz5ShkyfoK3fW8sQ8GGNmELbBbsADpgGBAAlNJ+swNZ5Q1Rl27ar6catd9X379+0L1n/VqSJAYBgBAdYwaq4Zs4AAa8ygbkdgFAEB1ih6riVAoGkCgy8LFkXE5uOI1bt74tzBhdha9+RV0+aoXwIECBDogIAAqwNDzn+LAqz8Z6TDDgkIsDo0bFslQCD6gwCr9/Rng8vH5+Pxwx4VAgQIECBAIEcBAVaOU+lcTwKszo3chnMWEGDlPB29ESAwboF+P+L+7ZknT16trwqvxu3rfgQIECBAYGwCAqyxUbrR8AICrOHtXElg7AICrLGTuiEBApkKPAmv7szExSML8fCu8CrTMWmLAAECBAg8FRBgOQkZCAiwMhiCFgg8FxBgOQsECLRdYHsroteL2Hjci9MfLMXq7am2b9n+CBAgQIBA8wUEWM2fYQt2IMBqwRBtoT0Ci7178ffz/9ueDdkJAQIEXhIYhFdT0xGPVqfi0rGFuPvNNB8CBAgQIECgCQIvAqx/jd7cXBM61mMLBYp3D37Sb+G+bIlAIwUGT2D9nQCrkbPTNAECrxbY3ozoTUWsPZyKc/sXY/WOJ6+cGQIECBAg0BiBZwHW0j8NAqz5xrSt0XYJCLDaNU+7abiAAKvhA9Q+AQI/KzB459XmRu/JO6/+cn2GFAECBAgQINAkAQFWk6bV2l4FWK0drY01UUCA1cSp6ZkAgTICaw+m4vyhhbj3nZ8NlvGyhgABAgQIZCUgwMpqHF1tpnj3kJ8QdnX49p2fwJMAa847sPKbjI4IEBhFYHu7iEtHFuLbL/aMchvXEiBAgAABAnUJPA+wfuUnhHWNQN0IAZZTQCAjAQFWRsPQCgECIwsMfja4vVXElTN74/rF2ZHv5wYECBAgQIBATQICrJrglX1ZQIDlPBDISECAldEwtEKAwEgCq3cjFl4rYvnjhfj60z0RPhkzkqeLCRAgQIBArQICrFr5FX8qIMByEghkJCDAymgYWiFAYCSBne0ivrw4H1+enYud7ZFu5WICBAgQIECgbgEBVt0TUF+A5QwQyEtAgJXXPHRDgMBwAoN3Xn19dS4+/3gutjeL4W7iKgIECBAgQCAfAQFWPrPocCeewOrw8G09PwEBVn4z0REBAuUFBu+8KoqIW1/tiQsHFmJLeFUez0oCBAgQIJCzgAAr5+l0pjcBVmdGbaNNEBBgNWFKeiRA4KcEBuHV4N/tb2Zj+eh8rD/sgSJAgAABAgTaIiDAasskG70PAVajx6f5tgkIsNo2Ufsh0B2BzfWIRw9m4sQ7S93ZtJ0SIECAAIGuCAiwujLprPdZvHvolO8CZT0izXVJ4GmA9T9d2rK9EiDQEoEHK9Nx5sPFWFv15FVLRmobBAgQIEDgrwIvAqzfRm9ujgyBWgQEWLWwK0rgpwUEWE4GAQJNE9jaiOhHL47+8fXYWPfC9qbNT78ECBAgQKCUgACrFJNFkxUQYE3W190JVBIQYFXispgAgQwEHq1OxYUji3Hv5lQG3WiBAAECBAgQmIiAAGsirG5aTaB4z08Iq4lZTWCCAgt+QjhBXbcmQGDcApsbvTi7bzFWbk4PHsPyjwABAgQIEGipQP9ZgPXar/yEsKUjbsS2BFiNGJMmuyIweALrLe/A6sq47ZNAowU21ntx8ehi3L4+3eh9aJ4AAQIECBDYXUCAtbuRFZMXEGBN3lgFAqUFBFilqSwkQKBGgZ3tIq6enY9r5+ei78mrGiehNAECBAgQSCMgwErjrMqrBYr3DvsKoUNCIBeBJwHWrK8Q5jIPfRAg8NMCV88vxBefzOIhQIAAAQIEOiLwIsD6tZ8QdmTkWW5TgJXlWDTVVQEBVlcnb98EmiEweNrqxqdz8enxvc1oWJcECBAgQIDAWAQEWGNhdJMRBQRYIwK6nMA4BQRY49R0LwIExi1w+6s9ce7AQmxvFuO+tfsRIECAAAECGQsIsDIeTodaE2B1aNi2mr/AYu9evDX7h/wb1SEBAp0SGDx5tfLdTJw/sBgba8KrTg3fZgkQIECAQEQIsByDHASK9w6f9vrVHCahBwIR8fQJLAGWw0CAQF4Cd2/uiYuH98b6g15ejemGAAECBAgQSCLw/QBrPklNRQj8UECA5UwQyEhAgJXRMLRCgMATge2tIs4dXIrb16eJECBAgAABAh0VEGB1dPCZbVuAldlAtNNtAQFWt+dv9wRyE1h7OBXLxxfizg3hVW6z0Q8BAgQIEEgpIMBKqa3WzwkIsJwNAhkJCLAyGoZWCHRcYGuziIuHF+PWtZmOS9g+AQIECBAgIMByBnIQEGDlMAU9EHgmIMByFAgQyEFgZ6eIa5fm4spJ77jIYR56IECAAAECdQsIsOqegPoDAQGWc0AgIwEBVkbD0AqBjgoMwqurZ+fj+oW52NnuKIJtEyBAgAABAt8TEGA5EDkICLBymIIeCDwTEGA5CgQI1C3w7ZdzcfnYfGxtFHW3oj4BAgQIECCQiYAAK5NBdLyN4v3Dp/sdN7B9AtkILPRW4q3ZP2TTj0YIEOiWwN1bM7F8ZCEe3et1a+N2S4AAAQIECLxS4HmA9fqvfxu9Oa8YcFzqESjePyLAqodeVQI/Fhg8gfXmHgGWs0GAQHqBB/em4+Q7SzF4ebt/BAgQIECAAIGXBV4EWG8LsJyM+gQEWPXZq0zgRwICLIeCAIGUAv1nz2BvbvTi/P7FuPvtdMryahEgQIAAAQINERBgNWRQLW9TgNXyAdteswQEWM2al24JtEFga6MXZ/Ytxorwqg3jtAcCBAgQIDARAQHWRFjdtKKAAKsimOUEJikgwJqkrnsTIPBDge2tIj4/tRA3Lu2BQ4AAAQIECBD4WQEBlsORg0Dx/pEzXuKewyT0QCAingZY/82CAAECSQSuX56Pq6d8cTAJtiIECBAgQKDBAk8DrNV4/e1/8xL3Bs+x6a0LsJo+Qf23SkCA1apx2gyBrAVuXpuL8/sWsu5RcwQIECBAgEAeAgKsPObQ9S4EWF0/AfaflYAAK6txaIZA6wR2tiN6UxErt2bi3L7F2FjrtW6PNkSAAAECBAiMX0CANX5Td6wuIMCqbuYKAhMTEGBNjNaNCRB4JvB4bSpO/Om1ePxAeOVQECBAgAABAuUEBFjlnKyarIAAa7K+7k6gkoAAqxKXxQQIlBR4/uTV2sOpOLd/KVb/MlXySssIECBAgAABAhECLKcgBwEBVg5T0AOBZwICLEeBAIFJCGw+jiimilg+thg3r/ri4CSM3ZMAAQIECLRZQIDV5uk2Z28CrObMSqcdEBBgdWDItkggscD21tOC1y/vjSsn5xNXV44AAQIECBBog4AAqw1TbP4eBFjNn6EdtEhAgNWiYdoKgUwEtreK+Orzufjso72ZdKQNAgQIECBAoGkCAqymTayd/Qqw2jlXu2qogACroYPTNoGMBW59NRuXDi/E5nqRcZdaI0CAAAECBHIWEGDlPJ3u9CbA6s6s7bQBAou9e/Hmnv9qQKdaJECgCQKrK9Nx6ciil7Y3YVh6JECAAAECGQs8D7DeePt3UczNZdyp1tosUHxw9Gy/zRu0NwJNElgoVgRYTRqYXglkKrCxFhFFLz7+v9di7b4vDmY6Jm0RIECAAIHGCLwIsH7zu+jNeadmYwbXskYFWC0bqO00W2ChtxJvzngCq9lT1D2BegWevrS9iEu+OFjvIFQnQIAAAQItEhBgtWiYDd6KAKvBw9N6+wQEWO2bqR0RSC0weGn7lTMLcePSbPR3UldXjwABAgQIEGijgACrjVNt3p4EWM2bmY5bLCDAavFwbY1AAoF+P+Lmtbm4sH8hQTUlCBAgQIAAga4ICLC6Mum89ynAyns+uuuYgACrYwO3XQJjFli9Mx1nPliKx496Y76z2xEgQIAAAQJdFhBgdXn6+exdgJXPLHRCIARYDgEBAlUFHj+KmJqO2On34sSfXo/1+8KrqobWEyBAgAABAq8WEGA5ITkICLBymIIeCDwTEGA5CgQIDCOw9mAqLn+0GLdvTA9zuWsIECBAgAABAq8UEGA5IDkICLBymIIeCAiwnAECBEYQWD6xGF8vz8bgHVj+ESBAgAABAgTGLSDAGreo+w0jIMAaRs01BCYk4AmsCcG6LYGWCgwCqz9f3BtXTs63dIe2RYAAAQIECOQgIMDKYQp6EGA5AwQyEhBgZTQMrRDIXODJFwf/PBcXDy1EfyfzZrVHgAABAgQINFpAgNXo8bWmeQFWa0ZpI20QEGC1YYr2QCCNwP07M3Fu/2Ksr3ppexpxVQgQIECAQHcFBFjdnX1OOxdg5TQNvXReQIDV+SMAgEApgYf3p2L52GKsfOul7aXALCJAgAABAgRGEhBgjcTn4jEJFB8cO+eVr2PCdBsCowosFCvx5sx/jnob1xMg0GKBrc0izu1fijvfzLR4l7ZGgAABAgQI5CTQ39yM/oPVeOOf/z16c969mdNsutSLAKtL07bX7AWePIE1LcDKflAaJFCTwM52EdeW5+OLM/Oxs11TE8oSIECAAAECnRMQYHVu5FluWICV5Vg01VUBAVZXJ2/fBMoJ3PpqNi4cXIjtzaLcBVYRIECAAAECBMYgIMAaA6JbjCwgwBqZ0A0IjE9AgDU+S3ci0DaB+7dn4vT7S7H5WHjVttnaDwECBAgQyF1AgJX7hLrRX/Ghd2B1Y9J22QiBvX5C2Ig5aZJAaoHNjV6c3b/kpe2p4dUjQIAAAQIEngg8D7B+4R1YTkSNAgKsGvGVJvBDgcETWH/rHVgOBgECLwkMwqsLR5bi9nVfHHQwCBAgQIAAgXoEBFj1uKv6fQEBlhNBICMBAVZGw9AKgQwEdnaKuHZpPq584ms/GYxDCwQIECBAoLMCAqzOjj6rjQuwshqHZrouIMDq+gmwfwLfF1j5biZOvbcUg68P+keAAAECBAgQqEtAgFWXvLovCwiwnAcCGQkIsDIahlYI1CjQ70cMXtp+dt9SbKwJr2ochdIECBAgQICAd2A5A5kICLAyGYQ2CAwEBFjOAQECA4H1R1Nx/uBS3PtuCggBAgQIECBAoHYBT2DVPgINRIQAyzEgkJGAACujYWiFQA0CgyevBv+Wjy/F15/tqaEDJQkQIECAAAECPxYQYDkVOQgUHx47/+y/yzm0owcC3RZ4GmD9R7cR7J5AhwW2Nou4cXk+rpzy0vYOHwNbJ0CAAAEC2Qn8NcD6ffTm/D8luwF1pCEBVkcGbZvNEBBgNWNOuiQwCYHB01ffXJ2Py8f3xs72JCq4JwECBAgQIEBgOAEB1nBurhqvgABrvJ7uRmAkAQHWSHwuJtBogQf3puP8gcV4uOK9V40epOYJECBAgEALBV4EWP/y++jNegKrhSNuxJaKD4/7CWEjJqXJTgg8CbCm/ISwE8O2SQIvCWxtRhz/42ux/rDHhQABAgQIECCQnUB/ayv6jx7GLwYBlp8QZjefrjQkwOrKpO2zEQLTxUb8cuqdmC++bkS/miRAYHSBjfWIzz6K+O7y6PdyBwIECBAgQIDApARm/uaXsfgP/xjFntlJlXBfAq8UEGA5IAQyE5gp1mM+7mTWlXYIEJiUwPpaxNqDiJ2tSVVwXwIECBAgQIDA6AJTr78Rvfm9o9/IHQgMKSDAGhLOZQQIECBAgAABAgQIECBAgAABAmkEBFhpnFUhQIAAAQIECBAgQIAAAQIECBAYUqDY5yXuQ9K5jAABAgQIECBAgAABAgQIECBAIIWAACuFshoECBAgQIAAAQIECBAgQIAAAQJDCwiwhqZzIQECBAgQIECAAAECBAgQIECAQAoBAVYKZTUIECBAgAABAgQIECBAgAABAgSGFij2Hb/QH/pqFxIgQIAAAQIECBAgQIAAAQIECBCYsIAAa8LAbk+AAAECBAgQIECAAAECBAgQIDCagABrND9XEyBAgAABAgQIECBAgAABAgQITFhAgDVhYLcnQIAAAQIECBAgQIAAAQIECBAYTUCANZqfqwkQIECAAAECBAgQIECAAAECBCYsUOz7yEvcJ2zs9gQIECBAgAABAgQIECBAgAABAiMICLBGwHMpAQIECBAgQIAAAQIECBAgQIDA5AUEWJM3VoEAAQIECBAgQIAAAQIECBAgQGAEAQHWCHguJUCAAAECBAgQIECAAAECBAgQmLyAAGvyxioQIECAAAECBAgQIECAAAECBAiMIFDs9xL3EfhcSoAAAQIECBAgQIAAAQIECBAgMGmBYv9HF/uTLuL+BAgQIECAAAECBAgQIECAAAECBIYVEGANK+c6AgQIECBAgAABAgQIECBAgACBJAICrCTMihAgQIAAAQIECBAgQIAAAQIECAwrIMAaVs51BAgQIECAAAECBAgQIECAAAECSQQEWEmYFSFAgAABAgQIECBAgAABAgQIEBhWQIA1rJzrCBAgQIAAAQIECBAgQIAAAQIEkggU+0/4CmESaUUIECBAgAABAgQIECBAgAABAgSGEhBgDcXmIgIECBAgQIAAAQIECBAgQIAAgVQCAqxU0uoQIECAAAECBAgQIECAAAECBAgMJSDAGorNRQQIECBAgAABAgQIECBAgAABAqkEBFippNUhQIAAAQIECBAgQIAAAQIECBAYSqDYf+JSf6grXUSAAAECBAgQIECAAAECBAgQIEAggYAAKwGyEgQIECBAgAABAgQIECBAgAABAsMLCLCGt3MlAQIECBAgQIAAAQIECBAgQIBAAgEBVgJkJQgQIECAAAECBAgQIECAAAECBIYXEGANb+dKAgQIECBAgAABAgQIECBAgACBBALFAS9xT8CsBAECBAgQIECAAAECBAgQIECAwLACAqxh5VxHgAABAgQIECBAgAABAgQIECCQRECAlYRZEQIECBAgQIAAAQIECBAgQIAAgWEFBFjDyrmOAAECBAgQIECAAAECBAgQIEAgiUBx4ONL/SSVFCFAgAABAgQIECBAgAABAgQIECAwhIAAawg0lxAgQIAAAQIECBAgQIAAAQIECKQTEGCls1aJAAECBAgQIECAAAECBAgQIEBgCAEB1hBoLiFAgAABAgQIECBAgAABAgQIEEgnUBz4eNk7sNJ5q0SAAAECBAgQIECAAAECBAgQIFBRQIBVEcxyAgQIECBAgAABAgQIECBAgACBtAICrLTeqhEgQIAAAQIECBAgQIAAAQIECFQUEGBVBLOcAAECBAgQIECAAAECBAgQIEAgrYAAK623agQIECBAgAABAgQIECBAgAABAhUFBFgVwSwnQIAAAQIECBAgQIAAAQIECBBIK1Ac9BXCtOKqESBAgAABAgQIECBAgAABAgQIVBIQYFXispgAAQIECBAgQIAAAQIECBAgQCC1gAArtbh6BAgQIECAAAECBAgQIECAAAEClQQEWJW4LCZAgAABAgQIECBAgAABAgQIEEgtUBw8udxPXVQ9AgQIECBAgAABAgQIECBAgAABAmUFioMnLwuwympZR4AAAQIECBAgQIAAAQIECBAgkFxAgJWcXEECBAgQIECAAAECBAgQIECAAIEqAgKsKlrWEiBAgAABAgQIECBAgAABAgQIJBcQYCUnV5AAAQIECBAgQIAAAQIECBAgQKCKgACripa1BAgQIECAAAECBAgQIECAAAECyQUEWMnJFSRAgAABAgQIECBAgAABAgQIEKgiIMCqomUtAQIECBAgQIAAAQIECBAgQIBAcgEBVnJyBQkQIECAAAECBAgQIECAAAECBKoICLCqaFlLgAABAgQIECBAgAABAgQIECCQXKA4dPJyP3lVBQkQIECAAAECBAgQIECAAAECBAiUFBBglYSyjAABAgQIECBAgAABAgQIECBAoB6B4tDJTz2BVY+9qgQIECBAgAABAgQIECBAgAABAiUEBFglkCwhQIAAAQIECBAgQIAAAQIECBCoT6A49IknsOrjV5kAAQIECBAgQIAAAQIECBAgQGA3AQHWbkL+ToAAAQIECBAgQIAAAQIECBAgUKuAAKtWfsUJECBAgAABAgQIECBAgAABAgR2ExBg7Sbk7wQIECBAgAABAgQIECBAgAABArUKCLBq5VecAAECBAgQIECAAAECBAgQIEBgNwEB1m5C/k6AAAECBAgQIECAAAECBAgQIFCrgACrVn7FCRAgQIAAAQIECBAgQIAAAQIEdhMQYO0m5O8ECBAgQIAAAQIECBAgQIAAAQK1CgiwauVXnAABAgQIECBAgAABAgQIECBAYDcBAdZuQv5OgAABAgQIECBAgAABAgQIECBQq4AAq1Z+xQkQIECAAAECBAgQIECAAAECBHYTKA598ll/t0X+ToAAAQIECBAgQIAAAQIECBAgQKAuAQFWXfLqEiBAgAABAgQIECBAgAABAgQIlBIoDp/yBFYpKYsIECBAgAABAgQIECBAgAABAgRqERBg1cKuKAECBAgQIECAAAECBAgQIECAQFkBAVZZKesIECBAgAABAgQIECBAWzu9tgAABuZJREFUgAABAgRqERBg1cKuKAECBAgQIECAAAECBAgQIECAQFkBAVZZKesIECBAgAABAgQIECBAgAABAgRqERBg1cKuKAECBAgQIECAAAECBAgQIECAQFkBAVZZKesIECBAgAABAgQIECBAgAABAgRqERBg1cKuKAECBAgQIECAAAECBAgQIECAQFkBAVZZKesIECBAgAABAgQIECBAgAABAgRqERBg1cKuKAECBAgQIECAAAECBAgQIECAQFkBAVZZKesIECBAgAABAgQIECBAgAABAgRqESgOn/q8X0tlRQkQIECAAAECBAgQIECAAAECBAiUECgOnxZglXCyhAABAgQIECBAgAABAgQIECBAoCYBAVZN8MoSIECAAAECBAgQIECAAAECBAiUEyiOeAKrnJRVBAgQIECAAAECBAgQIECAAAECtQgIsGphV5QAAQIECBAgQIAAAQIECBAgQKCsgACrrJR1BAgQIECAAAECBAgQIECAAAECtQgIsGphV5QAAQIECBAgQIAAAQIECBAgQKCsgACrrJR1BAgQIECAAAECBAgQIECAAAECtQgIsGphV5QAAQIECBAgQIAAAQIECBAgQKCsgACrrJR1BAgQIECAAAECBAgQIECAAAECtQgIsGphV5QAAQIECBAgQIAAAQIECBAgQKCsQHHk9JV+2cXWESBAgAABAgQIECBAgAABAgQIEEgtIMBKLa4eAQIECBAgQIAAAQIECBAgQIBAJQEBViUuiwkQIECAAAECBAgQIECAAAECBFILCLBSi6tHgAABAgQIECBAgAABAgQIECBQSUCAVYnLYgIECBAgQIAAAQIECBAgQIAAgdQCAqzU4uoRIECAAAECBAgQIECAAAECBAhUEiiOnPEVwkpiFhMgQIAAAQIECBAgQIAAAQIECCQVEGAl5VaMAAECBAgQIECAAAECBAgQIECgqoAAq6qY9QQIECBAgAABAgQIECBAgAABAkkFiqN+QpgUXDECBAgQIECAAAECBAgQIECAAIFqAgKsal5WEyBAgAABAgQIECBAgAABAgQIJBYojp652k9cUzkCBAgQIECAAAECBAgQIECAAAECpQUEWKWpLCRAgAABAgQIECBAgAABAgQIEKhDQIBVh7qaBAgQIECAAAECBAgQIECAAAECpQUEWKWpLCRAgAABAgQIECBAgAABAgQIEKhDQIBVh7qaBAgQIECAAAECBAgQIECAAAECpQUEWKWpLCRAgAABAgQIECBAgAABAgQIEKhDQIBVh7qaBAgQIECAAAECBAgQIECAAAECpQWKo2ev9kuvtpAAAQIECBAgQIAAAQIECBAgQIBAYgEBVmJw5QgQIECAAAECBAgQIECAAAECBKoJCLCqeVlNgAABAgQIECBAgAABAgQIECCQWECAlRhcOQIECBAgQIAAAQIECBAgQIAAgWoCAqxqXlYTIECAAAECBAgQIECAAAECBAgkFiiOeYl7YnLlCBAgQIAAAQIECBAgQIAAAQIEqggUx85+4SuEVcSsJUCAAAECBAgQIECAAAECBAgQSCogwErKrRgBAgQIECBAgAABAgQIECBAgEBVAQFWVTHrCRAgQIAAAQIECBAgQIAAAQIEkgoIsJJyK0aAAAECBAgQIECAAAECBAgQIFBVQIBVVcx6AgQIECBAgAABAgQIECBAgACBpAICrKTcihEgQIAAAQIECBAgQIAAAQIECFQVEGBVFbOeAAECBAgQIECAAAECBAgQIEAgqYAAKym3YgQIECBAgAABAgQIECBAgAABAlUFBFhVxawnQIAAAQIECBAgQIAAAQIECBBIKiDASsqtGAECBAgQIECAAAECBAgQIECAQFUBAVZVMesJECBAgAABAgQIECBAgAABAgSSChTHzn3RT1pRMQIECBAgQIAAAQIECBAgQIAAAQIVBARYFbAsJUCAAAECBAgQIECAAAECBAgQSC9QHDv3pSew0rurSIAAAQIECBAgQIAAAQIECBAgUFJAgFUSyjICBAgQIECAAAECBAgQIECAAIF6BARY9birSoAAAQIECBAgQIAAAQIECBAgUFKgOO4nhCWpLCNAgAABAgQIECBAgAABAgQIEKhDQIBVh7qaBAgQIECAAAECBAgQIECAAAECpQUEWKWpLCRAgAABAgQIECBAgAABAgQIEKhDQIBVh7qaBAgQIECAAAECBAgQIECAAAECpQUEWKWpLCRAgAABAgQIECBAgAABAgQIEKhDQIBVh7qaBAgQIECAAAECBAgQIECAAAECpQUEWKWpLCRAgAABAgQIECBAgAABAgQIEKhDQIBVh7qaBAgQIECAAAECBAgQIECAAAECpQX+H9P58izqkO35AAAAAElFTkSuQmCC;" vertex="1" parent="1">
          <mxGeometry width="1200" height="736" as="geometry" />
        </mxCell>
      </root>
    </mxGraphModel>
  </diagram>
</mxfile>
